<svg xmlns="http://www.w3.org/2000/svg" viewBox="0 0 128 160" x="0px" y="0px"><g><path d="M42.852,54.553A7.613,7.613,0,0,1,41.611,53.3a9.907,9.907,0,0,1-1.264-2.253,8.648,8.648,0,0,1-.524-2.023c-.155-1.219.052-1.906.207-1.921.185,0,.31.731.65,1.728a16.3,16.3,0,0,0,.716,1.758,14.487,14.487,0,0,0,1.2,1.951,9.294,9.294,0,0,0,1.47,1.477c.015-.044.037-.081.052-.126a11.583,11.583,0,0,1-.783-2.194,19.135,19.135,0,0,1-.348-4.5,1.441,1.441,0,0,1,.03-.266A12.087,12.087,0,0,1,39.9,42.166a70.942,70.942,0,0,0-3.546,7.874,1.221,1.221,0,0,1,.3.288C38.235,52.633,40,54.937,42.852,54.553Z"/><path d="M46.405,46.982c4.424,3.169,11.131,6.692,16.73,4.919,4.358-1.374,5.318-6.367,3.361-9.92-.894-.45-2.2-.864-3.575-1.462-3.221-1.367-5.725-2.733-5.592-3.051s2.851.532,6.072,1.9c.539.237,1.064.458,1.566.687a6.433,6.433,0,0,0-.864-.665c-4-2.548-9.714-5.259-14.567-5.3-3.457-.03-9.248,2.2-7.755,6.884A12.774,12.774,0,0,0,46.405,46.982ZM48.2,40.356c-.206-.3-.288-.487-.229-.547.126-.14.761.385,1.825.791.539.236,1.226.45,1.994.709.754.244,1.67.547,2.519.886,3.56,1.323,6.338,2.645,6.22,2.97s-3.1-.48-6.656-1.8c-.879-.347-1.721-.672-2.482-.975a12.066,12.066,0,0,1-2.009-1.012c-.133-.088-.266-.177-.384-.251-.125-.1-.236-.2-.34-.288A2.253,2.253,0,0,1,48.2,40.356ZM64.79,48.585a3.609,3.609,0,0,0,.273-.34,3.686,3.686,0,0,0,.51-1.411,19.815,19.815,0,0,0,.155-2.445c.015-.606.066-.945.155-.945s.192.317.325.9a9.785,9.785,0,0,1,.236,2.593,3.757,3.757,0,0,1-.82,2.312c-.177.184-.273.288-.421.428-.147.118-.3.244-.458.354s-.332.207-.5.3a9.816,9.816,0,0,1-4.757.864,18.249,18.249,0,0,1-8.169-2.437,10.511,10.511,0,0,1-2.091-1.463c-.458-.391-.687-.643-.643-.709.222-.414,4.565,3.036,10.94,3.368a9.626,9.626,0,0,0,4.2-.65c.148-.066.273-.147.406-.214s.244-.163.37-.244C64.6,48.755,64.731,48.629,64.79,48.585Zm-6.1-7.845c1.625.8,3.044,1.544,4.093,2.039,1.056.48,1.721.79,1.684.968-.03.155-.791.147-1.98-.133a25.123,25.123,0,0,1-4.343-1.751c-1.611-.79-3.051-1.485-4.092-1.9-1.086-.407-1.818-.65-1.773-.835.037-.148.775-.222,1.972-.022A18.5,18.5,0,0,1,58.688,40.74ZM44.063,37.985a3.894,3.894,0,0,1,.687-.938l.362-.318a3.734,3.734,0,0,1,.495-.332,5.816,5.816,0,0,1,2.024-.7,9.855,9.855,0,0,1,1.883-.14,17.522,17.522,0,0,1,3.095.354c1.721.37,2.718.791,2.689.946-.037.177-1.115.066-2.814-.067a24.855,24.855,0,0,0-2.955-.081,7.3,7.3,0,0,0-3.265.746,2.391,2.391,0,0,0-.325.207l-.369.318-.229.265a3.032,3.032,0,0,0-.207.318,3.227,3.227,0,0,0-.362,1.433,5.874,5.874,0,0,0,.665,2.652c.731,1.462,1.647,2.039,1.551,2.208-.052.06-.318.037-.761-.236A4.915,4.915,0,0,1,44.683,43.1,5.945,5.945,0,0,1,43.627,40,4.049,4.049,0,0,1,44.063,37.985Z"/><path d="M34.825,54.241c.119,2.146,3.518,2.921,3.9,3h0a3.978,3.978,0,0,0,.81.086,3.721,3.721,0,0,0,1.263-.223l1.491-.531-1.526-.422c-1.655-.457-3.212-1.725-4.9-3.99l-.552-.74-.318.867c-.134.365-.262.739-.388,1.112l-.086.256.167.213A.685.685,0,0,1,34.825,54.241Z"/><path d="M37.7,119.614c-.081.628-.178,1.248-.281,1.869A74.008,74.008,0,0,0,50.4,121.5c.125-.554.266-1.108.369-1.67C46.427,120.057,42.069,119.814,37.7,119.614Z"/><path d="M37.821,58.778c-1.736-.554-3.59-1.5-4.358-3.139-1.049.945-2.157,1.832-3.139,2.844a24.982,24.982,0,0,0-3.642,5.525c-1.787,3.191-4.439,5.385-6.574,8.317a45.506,45.506,0,0,0-5.9,10.179,9.661,9.661,0,0,0-.783,6.234,8.833,8.833,0,0,0,.68,2.187c.185.044.347.073.51.1-.045-.089-.1-.185-.141-.281-.081-.192-.162-.376-.243-.561a9,9,0,0,1-.37-1.086c-.354-1.366-.295-2.223-.148-2.245.193-.037.451.768.976,1.935.155.288.251.591.465.938.1.17.2.347.3.532a3.546,3.546,0,0,0,.31.465.377.377,0,0,0,.044.059,3.558,3.558,0,0,0,.067-1,4.545,4.545,0,0,0-.074-.65,5.327,5.327,0,0,0-.185-.643c-.148-.458-.273-.93-.377-1.381A5.674,5.674,0,0,1,15.2,84.58c.052-.178.1-.348.14-.51.067-.155.141-.3.207-.429s.133-.251.192-.362c.067-.1.141-.169.2-.243.251-.288.428-.429.5-.384.192.081-.288.893-.369,2.061a5.991,5.991,0,0,0,.162,1.662c.192-.444.392-.931.613-1.337.215-.429.429-.8.606-1.131a10.81,10.81,0,0,0,.717-1.617c.118-.421.214-.665.3-.65s.155.251.184.7a5.868,5.868,0,0,1-.4,1.921c-.133.384-.31.783-.473,1.2s-.3.849-.494,1.359a5.452,5.452,0,0,0-.222.7,2,2,0,0,0-.074.421,5.851,5.851,0,0,0,2.393-1.322,1.979,1.979,0,0,0,.074-.259c.059-.5.118-.975.17-1.418.059-.458.111-.887.163-1.278.221-1.566.45-2.519.62-2.5s.259,1.012.259,2.578c0,.281-.008.591-.008.909a11.778,11.778,0,0,0,.9-5.68c-.007-2.66,2.741-4.595,4.669-5.925a72.171,72.171,0,0,0,10.3-9.233c1.329-1.381,3.1-3.154,4.631-5.052A5.1,5.1,0,0,1,37.821,58.778Z"/><path d="M70.182,35.6a19.786,19.786,0,0,0,1.95.517c.118-.236.229-.465.34-.665.34-.605.642-.938.8-.871s.155.509.029,1.174c-.029.17-.074.362-.118.569,1.049.192,2.105.34,3.154.495a6.626,6.626,0,0,1,2.334-1.337,3.111,3.111,0,0,1,.82-.163,1.815,1.815,0,0,1,.613.015c.318.067.488.141.495.229.015.192-.753.251-1.6.739a6.185,6.185,0,0,0-1.144.768,17.052,17.052,0,0,1,5.015,1.6c.51.266,1,.554,1.492.849a4.136,4.136,0,0,1,.325-.531c.7-1.005,1.337-1.308,1.448-1.212.148.118-.3.717-.68,1.633a6.217,6.217,0,0,0-.243.664c2.112,1.4,4.07,3.021,6.094,4.565a6.14,6.14,0,0,1,1.344-1.034,2.856,2.856,0,0,1,1-.391c.251-.052.392-.037.429.044s-.052.214-.215.391c-.155.193-.421.34-.687.658a12.32,12.32,0,0,0-.945,1.027c.414.31.835.613,1.263.9a1.294,1.294,0,0,0,.126.1c1.093-1.034,2.282-2.024,3.383-3.05a45.086,45.086,0,0,0-5.112-3.745c-2.652-1.707-5.459-3.1-8.236-4.58a28.58,28.58,0,0,0-11.508-3.346,12.761,12.761,0,0,1-2.024-.318A9.963,9.963,0,0,1,70.182,35.6Z"/><path d="M61.141,35.075a34.3,34.3,0,0,1,4.432,2.681c3.316-1.042,3.036-5.067,1.846-7.726a1.432,1.432,0,0,1-.1-.362c-.118-.185-.243-.362-.369-.54C65.824,31.994,63.829,34.469,61.141,35.075Z"/><path d="M53.412,31.4l-.227-.236-.308.115a9.254,9.254,0,0,0-.891.383l-1.417.709,1.568.233c.485.072.977.167,1.464.268l1.814.378-1.379-1.24C53.823,31.815,53.618,31.609,53.412,31.4Z"/><path d="M69.333,113.306a12.675,12.675,0,0,0,.531,4.395,32.977,32.977,0,0,0,1.441,3.6c3.5-.037,7-.221,10.511-.229-.237-2.171-.938-4.277-.916-6.478C78.425,113.439,72.427,112.434,69.333,113.306Z"/><path d="M67.414,22.928l.861-2.177c.217-.548.679-1.908.278-2.682a.97.97,0,0,0-.647-.514l-.594-.144-.023.612c-.027.769-.02,1.609.022,2.566Z"/><path d="M64.358,12.909,63.2,12.392l.49,1.167a8.375,8.375,0,0,0,1.751,2.624l.727.74.127-1.029c.043-.344.093-.688.157-1.033l-.008-.34-.222-.188A5.082,5.082,0,0,0,64.358,12.909Z"/><path d="M90.879,47.056c-.613.857-1.167,1.647-1.558,2.23-.473.687-.806,1.131-.968,1.049-.148-.066-.118-.605.17-1.425A11.375,11.375,0,0,1,89.9,46.3c-1.707-1.359-3.383-2.784-5.178-3.988-.045.332-.082.679-.1,1.041-.184,3.221.628,5.806.288,5.931-.147.067-.568-.517-.945-1.595a12.094,12.094,0,0,1-.584-4.4,10.81,10.81,0,0,1,.244-1.677c-.3-.177-.6-.362-.909-.525a22.023,22.023,0,0,0-6.869-2.024c-1.049,1.219-1.928,2.408-2.6,3.265-.694.872-1.175,1.389-1.322,1.3s.066-.768.576-1.78a18.535,18.535,0,0,1,1.935-3.014c-.679-.11-1.359-.229-2.038-.369a5.3,5.3,0,0,1-1.847,2.009c-.621.3-1.056.4-1.152.259s.169-.5.65-.983a15.429,15.429,0,0,0,1.093-1.566c-.606-.155-1.212-.332-1.81-.539A5.372,5.372,0,0,1,67.4,39.381a9.666,9.666,0,0,1,2.283,6.611,7.092,7.092,0,0,0,1.049-.347l.605-.214c.2-.089.4-.192.613-.288s.421-.2.643-.3c.214-.118.428-.244.643-.362,1.521-.857,2.858-1.773,3.885-2.378s1.714-.894,1.817-.761c.1.148-.414.694-1.3,1.477a22.573,22.573,0,0,1-3.789,2.748c-.237.126-.473.259-.7.384-.244.1-.48.2-.717.3s-.458.192-.687.273-.458.126-.679.185a3.141,3.141,0,0,1-.34.081c3.73.835,7.173,2.445,10.844,3.568,2.711.835,5.436,1.588,8.169,2.349a9.675,9.675,0,0,1,2.349-4.772C91.677,47.654,91.278,47.359,90.879,47.056Z"/><path d="M100.1,55.152a.5.5,0,0,0-.379-.531,6.494,6.494,0,0,0-3.451.01.5.5,0,0,0-.156.867,8.769,8.769,0,0,0,1.713,1.139,7.223,7.223,0,0,0,1.719.5.554.554,0,0,0,.1.01.5.5,0,0,0,.5-.561A6.725,6.725,0,0,1,100.1,55.152Z"/><path d="M99.836,46.289l.4-.3-.3-.4a13.91,13.91,0,0,0-.957-1.119l-.338-.36-.365.333c-.5.461-1.04.916-1.584,1.376-2.423,2.051-4.929,4.171-5.312,7.43l-.05.427,1.879.518.178-.38A20.643,20.643,0,0,1,99.836,46.289Z"/><path d="M69.185,48.755a8.558,8.558,0,0,1-2.719,3.966c-5.9,4.794-16.058-.155-21.184-3.833A13.672,13.672,0,0,0,46.486,53a24,24,0,0,0,2.46,2.858,36.28,36.28,0,0,0,4.365,3.7c1.174.857,1.994,1.322,1.92,1.492-.059.148-1-.03-2.378-.746a20.236,20.236,0,0,1-4.794-3.56c-.281-.289-.547-.577-.8-.872-.222,3.413-.9,6.8-1.189,10.216a15.081,15.081,0,0,0,3.789,6.81,4.4,4.4,0,0,0,2.083,1.13,1.061,1.061,0,0,0,.392.067,3.018,3.018,0,0,1,.31.029c.162.022.251.059.258.1s-.081.1-.236.155c-.081.022-.177.052-.3.089a1.193,1.193,0,0,1-.428.052,4.184,4.184,0,0,1-2.637-.931,12,12,0,0,1-3.457-4.565c-.421,6.109-.768,12.424-2.9,18.164-.806,2.156,7.63,3.671,9.462,3.915a38.786,38.786,0,0,0,5.444.391,23.978,23.978,0,0,1-2.719-.938,29.978,29.978,0,0,1-5.126-2.726C47.232,86.005,45.9,84.41,46,84.314c.141-.148,1.655,1.189,4.469,2.762a36.428,36.428,0,0,0,5.1,2.4,25.3,25.3,0,0,0,3.146,1,15.2,15.2,0,0,0,3.443.473,7.876,7.876,0,0,0,1.4-.133c.31-.081.62-.148.93-.244l.4-.111a14.411,14.411,0,0,0,3.369-1.824c.214-.155.428-.3.635-.458l.155-.111c.126-.089.133-.081.2-.133l.325-.2a12.071,12.071,0,0,1,1.323-.761c.229-.111.443-.237.672-.325s.45-.17.665-.251a9.2,9.2,0,0,1,1.3-.355,13.459,13.459,0,0,1,3.944-.066c.9.118,1.4.221,1.4.31s-.51.14-1.419.17a18.607,18.607,0,0,0-3.737.45,8.533,8.533,0,0,0-1.153.392c-.192.081-.391.17-.591.258s-.384.215-.583.325a6.157,6.157,0,0,0-.6.348c-.207.14-.414.28-.628.421l-.318.221-.125.081-.156.126c-.214.162-.428.325-.642.495a.247.247,0,0,0-.074.052,29.344,29.344,0,0,1,5.614-.215,26.477,26.477,0,0,1,3.737.429,25.342,25.342,0,0,0,2.992.5c1.669-.968,1.847-2.157.517-3.582a1.373,1.373,0,0,1-.244-.436,8.277,8.277,0,0,1-1.47-.237,24.551,24.551,0,0,1-2.718-.871c-.613-.237-.953-.355-.953-.443s.4-.126,1.071-.03,1.618.31,2.77.48a7.95,7.95,0,0,0,1.463.1,1.335,1.335,0,0,1,.31-.3c1.3-.923.1-1.809-.628-2.659a10.226,10.226,0,0,0-1.573-.827,39.939,39.939,0,0,0-5.23-1.751l-.657-.192.28-.554.761-1.5c.251-.466.554-.864.8-1.256a23.652,23.652,0,0,1,1.47-1.943c.887-1.012,1.463-1.543,1.551-1.47.1.082-.288.754-1.012,1.877-.317.583-.8,1.226-1.211,2.031-.207.4-.473.8-.679,1.256-.119.258-.244.546-.37.82a28.916,28.916,0,0,1,4.8,1.536,1.741,1.741,0,0,0,.17.081,13.132,13.132,0,0,1-.472-1.905,23.586,23.586,0,0,1,.2-7.025,27.947,27.947,0,0,1,2.186-8.17c1.448-2.969,3.191-6,3.6-9.336v-.023c-1.662-.465-3.317-.945-4.949-1.506C77.052,51.17,73.27,49.493,69.185,48.755Zm.022,14.226a19.843,19.843,0,0,1,2.223-3.346c.961-1.2,1.847-2.253,2.5-3.006s1.086-1.212,1.241-1.123-.037.7-.517,1.625a23.507,23.507,0,0,1-2.253,3.28c-.953,1.174-1.81,2.238-2.437,3.013-.613.791-1.034,1.286-1.19,1.19C68.638,64.532,68.771,63.912,69.207,62.981ZM52.875,71.158,52.6,71l-.259-.155-.133-.082-.066-.037-.037-.022-.015-.007-.059-.037-.007-.008c-.178-.155-.362-.3-.517-.458s-.311-.317-.444-.48A10.415,10.415,0,0,1,49.8,67.664a16.437,16.437,0,0,1-1.241-3.752c-.465-2.2-.258-3.62-.1-3.6.178,0,.288,1.337.946,3.383a20.285,20.285,0,0,0,1.418,3.457A9.794,9.794,0,0,0,52,68.92c.118.14.251.259.369.391s.266.222.4.34a7.306,7.306,0,0,0,.99.532,5.018,5.018,0,0,0,2.083.443,6.7,6.7,0,0,0,2.046-.325,15.824,15.824,0,0,0,3.3-1.632C63,67.5,64.1,66.682,64.221,66.83c.1.118-.783,1.159-2.526,2.555a13.081,13.081,0,0,1-3.442,2A6.593,6.593,0,0,1,53.2,71.3,3.144,3.144,0,0,1,52.875,71.158ZM76.741,82.231c1.906.243,3.08.428,3.08.605s-1.211.3-3.139.274a31.382,31.382,0,0,0-7.32.45c-.443.141-.886.273-1.315.406l-3.169.975L67.449,82.9a34.033,34.033,0,0,0,4.491-4.536c1.064-1.255,1.751-2,1.883-1.905s-.324,1-1.218,2.393a21.883,21.883,0,0,1-1.766,2.386c-.266.288-.509.613-.79.923A24.114,24.114,0,0,1,76.741,82.231ZM76.7,69.725c-.17.392-.4.879-.687,1.426a19.082,19.082,0,0,1-1.137,1.736,33.339,33.339,0,0,1-8.908,7.918,50.191,50.191,0,0,1-5.755,3.154c-.229.1-.458.207-.679.31-.259.119-.458.185-.68.281a7.451,7.451,0,0,1-1.381.428,11.688,11.688,0,0,1-2.556.3c-3.095-.037-4.86-.842-4.86-.967.044-.215,1.891.273,4.823.081a12.508,12.508,0,0,0,2.32-.406,7.449,7.449,0,0,0,1.226-.451c.207-.1.458-.192.635-.288.214-.111.436-.214.657-.325,1.758-.886,3.657-1.95,5.577-3.169a40.038,40.038,0,0,0,8.886-7.416c.5-.547.872-1.1,1.241-1.566.325-.488.606-.9.842-1.248.414-.739.68-1.13.754-1.094S76.985,68.927,76.7,69.725Zm-.155-8.295a39.876,39.876,0,0,1-4.9,5.983c-4.344,4.247-8.621,6.678-8.776,6.434-.236-.318,3.679-3.191,7.9-7.32,2.091-2.083,3.812-4.122,5.068-5.607,1.226-1.514,2.031-2.437,2.179-2.334C78.145,58.682,77.605,59.775,76.549,61.43Z"/><path d="M81.712,99.582A8.92,8.92,0,0,0,80.25,98.23a18.46,18.46,0,0,0-3.73-1.987c-1-.421-1.685-.672-1.648-.85.03-.162.739-.221,1.906.008a10.84,10.84,0,0,1,4.2,1.824,3.176,3.176,0,0,1,.3.237,9.877,9.877,0,0,1-.074-2.194c.1-1.189,1.027-1.847,1.123-2.807-2.061.517-5-.672-6.656-.768-.177-.008-.354-.015-.531-.03.591.333,1.093.68,1.529.968,1.344.931,2.245,1.344,2.194,1.529-.03.155-1.123,0-2.63-.761A41.352,41.352,0,0,0,72.1,91.641c-.731-.258-.975.133-1.639.436s-1.411.354-2.083.643a29.968,29.968,0,0,0-3.465,1.942c-1.4.894-2.319,1.367-2.415,1.226s.635-.864,1.9-1.942a20.45,20.45,0,0,1,2.408-1.736.111.111,0,0,1,.03-.022A34.6,34.6,0,0,1,60.8,93.569c-.3.03-.6.044-.894.066a13.317,13.317,0,0,1-3.176.252c-1.381-.03-2.851-.222-4.358-.3-.384-.022-.754-.03-1.116-.03-.162-.007-.332-.007-.494-.015a.685.685,0,0,1,.051.111l.052.118.03.052c.007.015.133.237.133.237a2.016,2.016,0,0,0,.251.354,4.764,4.764,0,0,0,2.77,1.433c.96.2,1.78.281,2.341.377s.872.2.872.28-.318.148-.887.207a13.218,13.218,0,0,1-2.459.008,7.436,7.436,0,0,1-1.729-.377,4.292,4.292,0,0,1-1.8-1.2,3.162,3.162,0,0,1-.362-.465l-.133-.215-.022-.029-.044-.074-.03-.059-.059-.126a5.353,5.353,0,0,1-.251-.539c-.015-.059-.037-.111-.059-.185l-.022-.11a1.029,1.029,0,0,1-.015-.155.853.853,0,0,1,.015-.222.805.805,0,0,1,.052-.148,29.013,29.013,0,0,1-2.9-.82,32.267,32.267,0,0,1-4.2-1.418,1.139,1.139,0,0,1-.1.1,5.8,5.8,0,0,0,.125.6,4.777,4.777,0,0,0,2.955,3.146,8.724,8.724,0,0,0,1.381.385c.362.059.569.133.569.221s-.192.177-.547.266a4.372,4.372,0,0,1-1.64-.022A5.068,5.068,0,0,1,42.859,94.2a5.219,5.219,0,0,1-1.6-2.386c-.909,1.108-1.448,2.29.111,3.782.015.015.022.029.037.044a5.805,5.805,0,0,0,1.108.672,17.148,17.148,0,0,0,2.1.769c.864.14,1.676.2,2.341.258,1.152.1,1.876.222,1.884.4s-.71.355-1.877.48a10.725,10.725,0,0,1-4.69-.436,4.051,4.051,0,0,1-.657-.3l-.318-.155-.03-.015c-1.218,1.669-1.048,3.494-1.758,5.355-.509,1.345-1.233,2.652-1.684,4.011-.051.17-.1.333-.147.5.642-.155,1.211-.251,1.684-.406,1.085-.428,1.994-.753,2.6-1.078.62-.281.982-.406,1.026-.333s-.236.333-.775.746a14.184,14.184,0,0,1-2.511,1.478c-.606.273-1.293.413-1.928.628-.119.044-.252.088-.362.14a29.839,29.839,0,0,0-.311,5.451c1.012-.635,1.965-1.329,2.925-1.905.34-.2.673-.392.99-.577.37-.184.665-.3.983-.443q.93-.409,1.728-.753c2.135-.857,3.5-1.278,3.568-1.13s-1.152.849-3.191,1.905c-.5.266-1.064.569-1.655.887-.3.155-.6.31-.908.472-.3.193-.6.392-.909.591-1.071.71-2.208,1.6-3.545,2.408-.023.7-.052,1.4-.133,2.106,6.522.288,13.037.8,19.5-.407a15.064,15.064,0,0,1,2.342-8.8c-.074.037-.163.074-.237.111-.48.214-.945.421-1.4.628-.214.1-.473.206-.657.31-.215.111-.422.221-.628.325-1.655.894-3.11,1.839-4.395,2.541-.628.369-1.241.657-1.758.916-.547.236-1.02.428-1.4.561-.783.229-1.233.325-1.263.244s.355-.325,1.086-.694c.34-.2.761-.444,1.248-.724.48-.318,1.042-.643,1.633-1.049,1.2-.791,2.6-1.81,4.3-2.8.207-.118.428-.244.642-.362.252-.14.458-.221.687-.339.458-.215.916-.436,1.389-.665.938-.451,1.935-.887,2.947-1.33.2-.088.384-.177.584-.266l-.045-.051h.163q1.142-.522,2.209-1.057c.443-.251.879-.487,1.307-.724s.857-.495,1.27-.731A29.625,29.625,0,0,1,71.09,100.7a10.958,10.958,0,0,1,1.921-.568c.3-.067.554-.141.805-.178.251-.014.48-.036.687-.051.835-.059,1.285-.045,1.293.044s-.436.236-1.2.436c-.192.044-.414.1-.643.155s-.48.17-.746.258a14.089,14.089,0,0,0-1.773.717,37.67,37.67,0,0,0-4.373,2.475c-.406.251-.827.509-1.255.775-.4.229-.805.465-1.219.7.805-.008,1.647,0,2.519.007,2.356-.148,4.646-.871,6.337-1.071,1.744-.236,2.77-.052,2.785.1.022.192-1.049.333-2.607.768l-2.822.806a17.731,17.731,0,0,1-3.693.65c-.244,0-.48-.008-.717-.015.111.066.222.133.34.192,2.755,1.6,5.5,1.5,5.5,1.913,0,.081-.17.162-.473.236a5.44,5.44,0,0,1-1.33.126,8.757,8.757,0,0,1-2-.259A10.547,10.547,0,0,1,66.134,108c-.377-.192-.768-.458-1.049-.627l-.539-.325a19.959,19.959,0,0,1,2.3,5c3.339-2.312,10.954-1.344,14.781.429l-.215-.274a9.806,9.806,0,0,0-1.935-1.876,10.85,10.85,0,0,0-1.92-1.063c-1.138-.5-1.928-.724-1.884-.887.037-.125.8-.185,2.142.14a8.581,8.581,0,0,1,2.238.924,8.727,8.727,0,0,1,1.337,1c.008-.185.022-.369.022-.554a12.1,12.1,0,0,0-.361-3.368,7.751,7.751,0,0,0-1.16-2.453c-.931-1.27-1.862-1.78-1.758-1.964.044-.119,1.174.1,2.43,1.4a7.185,7.185,0,0,1,1.581,2.681c.052.155.1.325.14.5.6-2.171.214-3.944-.347-6.2C81.86,100.18,81.786,99.877,81.712,99.582Zm-25.166.967c-1.507.65-2.851,1.478-4.151,2.15a26.274,26.274,0,0,1-3.553,1.632,9.172,9.172,0,0,1-1.47.436,5.049,5.049,0,0,1-1.13.185c-.62.029-.968.007-.982-.082s.31-.221.9-.4a7.005,7.005,0,0,0,1.027-.377,12.252,12.252,0,0,0,1.314-.576c.968-.451,2.091-1.093,3.332-1.825a42.493,42.493,0,0,1,4.18-2.275,11.789,11.789,0,0,1,1.168-.487c.391-.148.782-.311,1.159-.436.761-.244,1.492-.488,2.194-.68,1.381-.406,2.63-.775,3.679-1.078,2.068-.65,3.294-1.212,3.39-1.034.081.118-1.034.975-3.088,1.854-1.019.436-2.267.886-3.634,1.352-.679.236-1.4.48-2.135.738-.369.133-.716.281-1.085.421A12.024,12.024,0,0,0,56.546,100.549ZM71.91,99.035c-1.566.761-3.759,1.522-6.094,2.548-1.189.5-2.334.975-3.375,1.389s-2.032.7-2.844.96c-1.677.407-2.726.554-2.763.385s.924-.614,2.475-1.212c.761-.362,1.677-.739,2.7-1.2s2.135-.967,3.324-1.477a63.327,63.327,0,0,1,6.234-2.208c1.6-.51,2.622-.85,2.689-.673C74.311,97.691,73.454,98.3,71.91,99.035Z"/><path d="M104.507,56.3c-.162.008-.118.037-.206.126-.052.066-.1.14-.155.214-.008.037-.111.207-.163.3a1.123,1.123,0,0,0-.074.524,5.175,5.175,0,0,0,.635,1.522.607.607,0,0,0,.089.148.026.026,0,0,0,.022-.008c.044-.007.081-.014.118-.022l-.014-.015a1.371,1.371,0,0,1,.059-.147,4.279,4.279,0,0,1,.059-2.105c.059-.2.125-.37.192-.54-.015.008-.03.008-.045.015A2.3,2.3,0,0,1,104.507,56.3Z"/><path d="M116.157,58.589l-.345-.11a3.691,3.691,0,0,0-1.73-.187l-.328.054-.078.323a5.836,5.836,0,0,0-.086,1.5,6.764,6.764,0,0,1-.013.892l-.047.391.37.137a2.291,2.291,0,0,0,.779.158,1.227,1.227,0,0,0,1.175-.841,4.79,4.79,0,0,0,.307-1.956Z"/><path d="M100.844,47.669a20.537,20.537,0,0,0-5.016,5.281,8.683,8.683,0,0,1,4.971.192c.037.015.059.03.089.045a1.235,1.235,0,0,1,.643.3,2.865,2.865,0,0,1,1.026-.76,2.634,2.634,0,0,1,1.167-.207,1.649,1.649,0,0,1,.746.2c.148.089.229.177.222.259s-.1.162-.266.221-.354.119-.606.2a2.828,2.828,0,0,0-1.425,1,5.151,5.151,0,0,0-.665,1.344c.059,1.662,1.108,4.573,2.364,4.669a3.112,3.112,0,0,1-.65-.835c-.089-.163-.178-.362-.237-.48-.073-.155-.147-.318-.214-.488a2.823,2.823,0,0,1-.236-1.145,2.128,2.128,0,0,1,.369-1.1c.1-.111.185-.229.273-.333.119-.1.222-.206.348-.3a1.079,1.079,0,0,1,.494-.185.831.831,0,0,1,.436.074,2.851,2.851,0,0,1,.377.2c.066.036.126.059.185.088.28-.561.561-.827.657-.775.163.074-.052.76-.148,1.824a7.175,7.175,0,0,1,.237,1.241c.022.222.044.465.051.731a1.946,1.946,0,0,0,.414.569,3.326,3.326,0,0,0,.842.547c.037-.008.1.051.111.037h.1c.008-.008.008-.023.015-.045a8.9,8.9,0,0,0,.126-1.085c.1-.761.177-1.441.31-2.017.325-1.175.606-1.847.768-1.8s.2.775.111,1.891c-.022.568-.008,1.27-.052,2.031a6.015,6.015,0,0,1-.088,1.307.719.719,0,0,1-.067.2,1.062,1.062,0,0,1,.236.155,2.82,2.82,0,0,0,.747.436,3.353,3.353,0,0,1-.163-.916,7.266,7.266,0,0,1,.052-1.226,9.192,9.192,0,0,1,.48-1.958,4.2,4.2,0,0,1,.665-1.226c.243-.3.413-.3.48-.266.081.052-.03.259-.067.51-.051.273-.148.687-.229,1.211a18.283,18.283,0,0,0-.184,1.825,8.045,8.045,0,0,0,.022,1.041,1.929,1.929,0,0,0,.207.82.061.061,0,0,1,.007.022V61l.052.007.147.052a.285.285,0,0,0,.178.022.257.257,0,0,0,.1-.008.826.826,0,0,0,.5-.4.7.7,0,0,0,.052-.1c.067-1.367-.007-2.578.791-3.723C112.839,51.229,104.611,50.719,100.844,47.669Z"/><path d="M48.9,22.173a2.749,2.749,0,0,0-.183,1.893,3.307,3.307,0,0,0,2.407,2.342,1.062,1.062,0,0,0,.809-.1A16.349,16.349,0,0,0,55.66,30.99c3.036,2.526,6.4,2.814,8.487-1.012a12.5,12.5,0,0,0,1.64-6.323c-.111-1.758-.214-3.427-.185-5.1A10.131,10.131,0,0,1,61.7,12.93a6.806,6.806,0,0,0-3.568,1.241c-.584.406-1.618,1.174-2.415.856-.828-.332-1.507-1.322-2.46-.79a5.606,5.606,0,0,1-1.965.857,3.059,3.059,0,0,1-.635,0,21.34,21.34,0,0,0-1.336,4.291A13.618,13.618,0,0,1,47.993,15.6a.469.469,0,0,0,.177.092.447.447,0,0,0,.089.008.5.5,0,0,0,.469-.325l.5-1.324a.493.493,0,0,0,.013-.269l.128-.12a1.518,1.518,0,0,0-.166-.131l-.1-.069a4.666,4.666,0,0,1-.523-1.355.483.483,0,0,0-.2-.293,3.332,3.332,0,0,1,.108-.682,3.477,3.477,0,0,1,.757-1.4,3.988,3.988,0,0,1,.991-.668c-.211,1.729-.183,4.433,1.4,3.543a10.158,10.158,0,0,1,1.876-.842c1.515-.5,2.268,1.248,3.5.495,2.777-1.707,6.544-2.209,9.2-.289-.214-2.851-2.26-4.2-5.54-5.052a15.773,15.773,0,0,0-7.844-.259,7.136,7.136,0,0,0-1.565.594,5.581,5.581,0,0,0-4.448,3.387,11.179,11.179,0,0,0-.266,5.616C46.93,18.39,48.3,20.141,48.9,22.173Zm5.877-1.982a.623.623,0,0,1,.547-.207,1.046,1.046,0,0,1,.7.606,3.741,3.741,0,0,1,.31.96,12.588,12.588,0,0,1,.222,2.43c0,.473-.4,1.174-.141,1.588.429.658,1.721-.029,2.32-.111.192-.029.369-.044.554-.066.081-.015.162-.022.221-.037a1.322,1.322,0,0,0-.044-.192,5.253,5.253,0,0,0-.3-.672c-.14-.274-.206-.48-.3-.695s-.14-.45-.192-.642c-.022-.207-.037-.384-.044-.54a2.572,2.572,0,0,1,.037-.391c.036-.214.081-.325.147-.325s.133.1.207.288c.03.1.074.207.118.34s.119.266.178.421c.088.155.162.3.273.487s.251.414.377.584a5.659,5.659,0,0,1,.458.761,1.914,1.914,0,0,1,.162.576,1.107,1.107,0,0,1-.221.8,1.011,1.011,0,0,1-.4.266l-.163.051c-.118.03-.207.052-.31.074-.2.044-.392.074-.591.111-.377.066-.768.126-1.175.192a4.156,4.156,0,0,1-.989.14c-.1-.007-.178,0-.281-.014a2.805,2.805,0,0,1-.325-.089,1.21,1.21,0,0,1-.561-.473,1.546,1.546,0,0,1-.237-.605l-.037-.37a2.726,2.726,0,0,1,.008-.45l.014-.355c.015-.236.03-.458.045-.68.059-.879.1-1.662.074-2.289a2.191,2.191,0,0,0-.251-1.212c-.156-.118-.458.015-.481-.074C54.692,20.338,54.714,20.272,54.773,20.191Z"/></g><text x="0" y="143" fill="#000000" font-size="5px" font-weight="bold" font-family="'Helvetica Neue', Helvetica, Arial-Unicode, Arial, Sans-serif">Created by Hey Rabbit</text><text x="0" y="148" fill="#000000" font-size="5px" font-weight="bold" font-family="'Helvetica Neue', Helvetica, Arial-Unicode, Arial, Sans-serif">from the Noun Project</text></svg>