<?xml version="1.0" encoding="UTF-8"?>
<svg version="1.1" xmlns="http://www.w3.org/2000/svg" width="490" height="601">
<path d="M0 0 C161.7 0 323.4 0 490 0 C490 198.33 490 396.66 490 601 C328.3 601 166.6 601 0 601 C0 402.67 0 204.34 0 0 Z " fill="#FEFEFE" transform="translate(0,0)"/>
<path d="M0 0 C5.76812785 0.57097329 10.93704361 1.69994833 16.4375 3.5 C17.24098877 3.75773193 18.04447754 4.01546387 18.87231445 4.28100586 C26.94817116 6.90980379 34.92113175 9.82294954 42.8984375 12.734375 C50.26981495 15.41404447 57.67250046 17.86932235 65.18359375 20.125 C68 21 68 21 70 22 C68.64274372 34.48675779 63.27614361 45.14726505 57.82617188 56.3046875 C53.97195131 64.37681804 51.14908105 72.31868022 49 81 C48.66367554 82.35134033 48.66367554 82.35134033 48.32055664 83.72998047 C46.01582094 93.53062664 44.64300623 103.17281522 44.625 113.25 C44.62338867 114.0944165 44.62177734 114.93883301 44.62011719 115.80883789 C44.72031615 121.41051674 45.58650997 126.58351922 47 132 C39.96354423 130.11380178 32.96640656 128.13072305 26 126 C27.54803265 120.23684231 30.48278386 115.62543026 33.625 110.625 C34.140625 109.79355469 34.65625 108.96210938 35.1875 108.10546875 C36.45286795 106.06682038 37.72378866 104.03187118 39 102 C30.90345242 109.82571236 24.53843214 118.69160138 20 129 C20.53625 129.07476562 21.0725 129.14953125 21.625 129.2265625 C27.40383829 130.19603866 32.77127186 131.84701138 38.25 133.875 C38.92289063 134.11943848 39.59578125 134.36387695 40.2890625 134.61572266 C46.64450001 137.03198213 52.30107316 140.08171705 56 146 C55.82560493 149.05191378 55.18741485 149.81258515 53 152 C46.35241554 152.67044014 39.59546448 151.86497895 33 151 C33.85722656 151.25394531 34.71445312 151.50789062 35.59765625 151.76953125 C51.79596374 156.64545921 51.79596374 156.64545921 55 160.25 C56.33288638 163.91543755 55.97157915 166.25248043 55 170 C53.45509067 172.00884607 52.60248612 172.88541675 50.08984375 173.36328125 C46.17533275 173.27092437 42.56723138 172.95646378 38.76171875 172.01953125 C31.22284538 170.45892086 23.54287874 170.53323653 15.875 170.375 C14.33070924 170.33673324 12.78643784 170.29767677 11.2421875 170.2578125 C7.49497087 170.16277533 3.74760583 170.07840713 0 170 C10.29150382 159.56375527 20.94199034 157.66073897 35 156 C19.10330571 155.32909614 9.36267565 158.03983142 -4 167 C-16.4387787 175.04312006 -26.72721112 177.97892219 -41.73828125 175.34375 C-60.82868628 170.66690315 -78.73811066 160.81872056 -95 150 C-82.15136462 162.47473329 -66.57726396 170.56944341 -50 177 C-50 177.33 -50 177.66 -50 178 C-68.66707509 178.82220396 -92.62155451 176.53383411 -108 165 C-109 164 -109 164 -109.203125 160.92578125 C-108.98612041 156.73175021 -108.01087234 153.15024163 -106.75 149.1875 C-100.61260712 128.35318451 -99.20137221 106.58074722 -98 85 C-97.34 85 -96.68 85 -96 85 C-95.731875 85.54527344 -95.46375 86.09054687 -95.1875 86.65234375 C-91.11635415 94.48662113 -85.76553158 103.07815614 -77 106 C-74.24853726 106.25284367 -74.24853726 106.25284367 -72 106 C-73.175625 105.505 -74.35125 105.01 -75.5625 104.5 C-86.39381386 98.94157531 -92.28520117 86.14439649 -96 75 C-96.71321877 65.18494865 -95.25812273 55.45823224 -94 45.75 C-93.80661542 44.21492879 -93.61390266 42.67977279 -93.421875 41.14453125 C-92.9556396 37.42868021 -92.48038642 33.71405137 -92 30 C-88.22975351 31.25674883 -86.77819804 33.1586611 -84 36 C-78.02629666 41.68342108 -68.56670528 50 -60 50 C-61.01578125 49.26136719 -62.0315625 48.52273437 -63.078125 47.76171875 C-96.13187334 23.50752317 -96.13187334 23.50752317 -99 6 C-99.0373389 4.33375164 -99.04709544 2.66600114 -99 1 C-98.175 1.4846875 -97.35 1.969375 -96.5 2.46875 C-82.80041554 10.45129584 -69.28001816 17.55980649 -54 22 C-53.19304687 22.24621094 -52.38609375 22.49242187 -51.5546875 22.74609375 C-39.23560435 26.04178943 -26.7875018 24.28006176 -15.43359375 18.75 C-8.10242601 14.38355153 -3.622342 7.59466874 0 0 Z " fill="#030303" transform="translate(290,181)"/>
<path d="M0 0 C6.67465575 1.4551706 13.32443423 2.97265723 19.9375 4.6875 C20.88173828 4.90599609 21.82597656 5.12449219 22.79882812 5.34960938 C25.39616931 6.03938288 27.64834095 6.6969049 30 8 C31.49609375 11.5390625 31.49609375 11.5390625 32 15 C35.85205461 19.87171612 40.68472958 23.40524269 46.92724609 24.265625 C51.61140745 24.70879332 56.29763841 24.88586501 61 25 C61 24.34 61 23.68 61 23 C60.17757812 22.98582031 59.35515625 22.97164063 58.5078125 22.95703125 C50.99413861 22.63600823 44.044074 21.85487485 38 17 C37.28887429 15.35181237 36.61697978 13.68569219 36 12 C36.93980713 12.02094727 37.87961426 12.04189453 38.84790039 12.06347656 C60.65312461 12.50632352 80.76824335 11.43650516 102 6 C99.0202619 9.14209562 95.61998658 11.60311 92.15625 14.18359375 C90.04548759 15.96168165 88.55531661 17.73182994 87 20 C87.99 19.39671875 88.98 18.7934375 90 18.171875 C116.13151788 2.31482493 116.13151788 2.31482493 123.35229492 3.33105469 C126.05727626 4.0144709 128.42961678 4.93161628 130.9765625 6.06640625 C132.35328125 6.6706543 132.35328125 6.6706543 133.7578125 7.28710938 C135.67724344 8.14091619 137.59651302 8.99508586 139.515625 9.84960938 C140.43085938 10.25115234 141.34609375 10.65269531 142.2890625 11.06640625 C143.12131348 11.43709229 143.95356445 11.80777832 144.81103516 12.18969727 C147.07988254 13.17357712 147.07988254 13.17357712 150 13 C149.13375 12.43410156 148.2675 11.86820312 147.375 11.28515625 C146.24988038 10.5444525 145.12488684 9.80355721 144 9.0625 C143.42765625 8.68931641 142.8553125 8.31613281 142.265625 7.93164062 C140.82614271 6.98055411 139.41085511 5.99305724 138 5 C138 4.67 138 4.34 138 4 C139.77119803 4.14133499 141.54195287 4.28823208 143.3125 4.4375 C144.29863281 4.51871094 145.28476562 4.59992188 146.30078125 4.68359375 C149 5 149 5 152 6 C154.56634861 6.22718496 157.11678107 6.41608184 159.6875 6.5625 C160.38939453 6.60568359 161.09128906 6.64886719 161.81445312 6.69335938 C163.54275206 6.7991736 165.2713511 6.90006581 167 7 C165.22712418 12.57189542 165.22712418 12.57189542 163.9140625 15.046875 C162.77694337 17.47661673 162.58553146 19.58326819 162.375 22.25 C162.30023438 23.14203125 162.22546875 24.0340625 162.1484375 24.953125 C162.07496094 25.96632813 162.07496094 25.96632813 162 27 C159.2954106 25.92419678 156.59993694 24.83288505 153.9140625 23.7109375 C152.82867187 23.27007812 151.74328125 22.82921875 150.625 22.375 C149.00464844 21.70597656 149.00464844 21.70597656 147.3515625 21.0234375 C143.73394549 19.91875725 140.76054555 19.819113 137 20 C138.59328125 20.65355469 138.59328125 20.65355469 140.21875 21.3203125 C155.08561577 27.53944228 155.08561577 27.53944228 161 33 C161.6909375 33.60714844 162.381875 34.21429688 163.09375 34.83984375 C168.83409999 41.34478954 168.32814845 51.88361226 168.30078125 60.06640625 C168 63 168 63 166 66 C165.76925781 65.40832031 165.53851563 64.81664062 165.30078125 64.20703125 C162.13597613 56.53894613 157.94473218 52.36064579 151 48 C151.5775 48.721875 152.155 49.44375 152.75 50.1875 C153.4925 51.115625 154.235 52.04375 155 53 C155.99 54.0828125 155.99 54.0828125 157 55.1875 C163.06603496 63.71786166 163.53248152 71.7349395 163 82 C162.17757812 81.50628906 161.35515625 81.01257813 160.5078125 80.50390625 C153.71463222 76.60527969 148.01256078 73.87339069 140 74 C141.14275391 74.41958984 141.14275391 74.41958984 142.30859375 74.84765625 C158.20729926 81.02056188 158.20729926 81.02056188 162.2421875 88.21484375 C162.49226562 88.80394531 162.74234375 89.39304687 163 90 C161.96101562 89.73445313 160.92203125 89.46890625 159.8515625 89.1953125 C156.22730916 88.27334567 152.59738192 87.37601389 148.96484375 86.48730469 C147.42033042 86.10424696 145.88094957 85.70048944 144.34375 85.2890625 C130.20344742 81.85356645 115.32921464 83.4960155 102 89 C101.68546875 88.13117188 101.3709375 87.26234375 101.046875 86.3671875 C97.85833881 77.73479565 97.85833881 77.73479565 93 70 C93.33 69.34 93.66 68.68 94 68 C94.96421875 68.49371094 95.9284375 68.98742187 96.921875 69.49609375 C98.19780852 70.14344237 99.47385621 70.79056599 100.75 71.4375 C101.70132813 71.92573242 101.70132813 71.92573242 102.671875 72.42382812 C108.27650568 75.25533425 112.0014434 76.13041909 118.25 76.0625 C119.32765625 76.05347656 120.4053125 76.04445313 121.515625 76.03515625 C122.33546875 76.02355469 123.1553125 76.01195312 124 76 C124 75.34 124 74.68 124 74 C123.39414062 73.97421875 122.78828125 73.9484375 122.1640625 73.921875 C114.50462678 73.40339012 106.32179669 71.98916026 101 66 C101.83660156 65.90203125 102.67320312 65.8040625 103.53515625 65.703125 C111.47008597 64.68379848 118.85155162 63.10807324 126.5546875 60.953125 C130.67832984 59.81234413 134.81434288 58.88119097 139 58 C139 57.67 139 57.34 139 57 C132.09182329 57.33783664 125.50191258 58.02830336 118.75 59.5625 C110.46457118 61.34598834 102.43935112 61.27890144 94 61 C106.0531868 50.92535518 121.6869049 42.47948484 137 39 C123.51458075 38.43092221 111.51025247 45.45708805 100.20214844 52.04785156 C92.25445628 56.66840938 84.28675524 60.9002932 75.875 64.625 C74.59085205 65.19480591 74.59085205 65.19480591 73.28076172 65.77612305 C71.61263943 66.51503683 69.9443507 67.25357497 68.27587891 67.99169922 C55.70020987 73.56319816 44.73880507 80.65063541 33.40332031 88.38769531 C29.98731513 90.67937534 26.50394564 92.84560187 23 95 C31.26887279 91.77507592 38.9130989 87.98862066 46.5625 83.5 C53.88186352 79.22251434 61.21239441 75.36207506 69 72 C67.77382419 75.09331439 66.48597721 78.11797586 65.0625 81.125 C60.88896604 90.56217007 59.47339378 99.73225225 59 110 C31.91519941 114.29851227 5.21676098 113.07786845 -22 111 C-22.45406118 107.8914273 -22.58419997 105.09810736 -22 102 C-20.00387787 99.35440014 -17.48120646 97.79851696 -14.6875 96.0625 C-13.93509033 95.56306885 -13.18268066 95.0636377 -12.4074707 94.54907227 C-4.57765576 89.47051254 3.69845279 85.17220938 12.0715332 81.06811523 C14.20651511 79.88561798 16.07964346 78.50210871 18 77 C5.30328157 81.52402296 -6.41739121 86.12303448 -17.33203125 94.12890625 C-20 96 -20 96 -22 96 C-22.0272367 93.47909222 -22.04695207 90.95848543 -22.0625 88.4375 C-22.07087891 87.73302734 -22.07925781 87.02855469 -22.08789062 86.30273438 C-22.10882603 81.75975202 -21.74800682 77.48215108 -21 73 C-20.16597656 72.70867187 -19.33195313 72.41734375 -18.47265625 72.1171875 C-11.29378735 69.50220433 -5.11324923 66.59678431 1 62 C-0.10859375 62.433125 -1.2171875 62.86625 -2.359375 63.3125 C-3.82278247 63.87534903 -5.28633162 64.43782979 -6.75 65 C-7.47960937 65.28617187 -8.20921875 65.57234375 -8.9609375 65.8671875 C-10.02441406 66.27324219 -10.02441406 66.27324219 -11.109375 66.6875 C-11.75874023 66.93886719 -12.40810547 67.19023437 -13.07714844 67.44921875 C-15 68 -15 68 -19 68 C-18.36094033 63.8499619 -16.95093369 60.48669512 -15.1875 56.6875 C-12.50406026 50.73188621 -10.74413521 44.80219777 -9.3815918 38.41870117 C-8.50237644 34.43720553 -7.29823816 31.37290727 -5 28 C-3.73027344 28.32613281 -2.46054688 28.65226562 -1.15234375 28.98828125 C4.08466962 30.1505802 9.09240853 30.26278298 14.4375 30.1875 C15.33404297 30.18685547 16.23058594 30.18621094 17.15429688 30.18554688 C21.73153416 30.30980314 21.73153416 30.30980314 26 29 C24.88882813 28.90203125 23.77765625 28.8040625 22.6328125 28.703125 C1.67107137 26.67107137 1.67107137 26.67107137 -6 19 C-8.27511309 15.74983844 -8.48862559 12.90900473 -8 9 C-6 6.625 -6 6.625 -4 5 C-3.48953125 5.77923828 -3.48953125 5.77923828 -2.96875 6.57421875 C1.15867073 12.51287464 5.39254454 17.11800138 12.734375 18.5234375 C15.16362796 18.77734247 17.55884173 18.94497389 20 19 C20 18.34 20 17.68 20 17 C18.989375 16.9175 17.97875 16.835 16.9375 16.75 C11.40612942 15.94380834 7.41029133 13.56275526 3.6875 9.4375 C0 4.11111111 0 4.11111111 0 0 Z " fill="#050505" transform="translate(178,356)"/>
<path d="M0 0 C4.56438465 3.36492554 7.1526897 6.93617735 8.02734375 12.5703125 C8.08921875 13.5809375 8.15109375 14.5915625 8.21484375 15.6328125 C7.66699219 15.3440625 7.11914062 15.0553125 6.5546875 14.7578125 C-2.22887677 10.64453362 -11.25616719 10.04825064 -20.6015625 12.7265625 C-26.07424372 14.51611534 -26.07424372 14.51611534 -30.78515625 17.6328125 C-37.18050509 16.93513808 -37.18050509 16.93513808 -39.78515625 15.6328125 C-41.86754091 15.65617264 -41.86754091 15.65617264 -44.16015625 15.9453125 C-44.93101562 16.02394531 -45.701875 16.10257813 -46.49609375 16.18359375 C-48.88568606 16.65254105 -50.62189465 17.54893299 -52.78515625 18.6328125 C-55.47265625 18.3828125 -55.47265625 18.3828125 -57.78515625 17.6328125 C-59.06962544 15.06387412 -59.11492769 12.86704913 -59.34765625 10.0078125 C-59.43144531 9.00492188 -59.51523438 8.00203125 -59.6015625 6.96875 C-59.66214844 6.19789062 -59.72273437 5.42703125 -59.78515625 4.6328125 C-62.55525096 6.48058675 -62.55525096 6.48058675 -64.78515625 9.6328125 C-65.06441912 14.16894717 -64.01532688 18.52380857 -63.09765625 22.9453125 C-62.73124571 26.09644317 -63.38212012 27.82674024 -64.78515625 30.6328125 C-65.77515625 30.6328125 -66.76515625 30.6328125 -67.78515625 30.6328125 C-66.13515625 35.2528125 -64.48515625 39.8728125 -62.78515625 44.6328125 C-62.55183594 43.52421875 -62.31851563 42.415625 -62.078125 41.2734375 C-59.32170143 29.80040002 -59.32170143 29.80040002 -55.21484375 26.6796875 C-52.37252319 25.64189198 -49.78299992 25.01692502 -46.78515625 24.6328125 C-45.67140625 24.4884375 -44.55765625 24.3440625 -43.41015625 24.1953125 C-40.78515625 24.6328125 -40.78515625 24.6328125 -38.28515625 26.1953125 C-35.87725589 27.84497183 -35.87725589 27.84497183 -33.09765625 27.6953125 C-29.90235396 26.67040422 -27.77494278 25.43304301 -24.97265625 23.6328125 C-20.10132202 20.54295255 -16.51308369 19.81758435 -10.78515625 19.6328125 C-10.30046875 20.6228125 -9.81578125 21.6128125 -9.31640625 22.6328125 C-5.77789713 29.65998004 -2.74648238 35.65058708 3.6484375 40.53125 C6.16913315 43.91313094 6.02191428 47.5106711 6.21484375 51.6328125 C6.25875244 52.49003906 6.30266113 53.34726563 6.34790039 54.23046875 C6.78173719 65.24650113 7.0263438 75.46604698 2.21484375 85.6328125 C1.71210938 86.77943359 1.71210938 86.77943359 1.19921875 87.94921875 C-1.53603138 93.84303153 -4.72338739 98.80843119 -10.6796875 101.89453125 C-16.04223492 103.77490502 -21.21959196 103.52786106 -26.55078125 101.66796875 C-36.87364179 96.5802732 -45.43961669 87.77090477 -50.78515625 77.6328125 C-50.78515625 76.9728125 -50.78515625 76.3128125 -50.78515625 75.6328125 C-51.65140625 75.7153125 -52.51765625 75.7978125 -53.41015625 75.8828125 C-57.68653343 75.56604382 -59.52556556 74.38535575 -62.78515625 71.6328125 C-65.53253069 67.87806743 -65.83493988 65.34642023 -65.47265625 60.8828125 C-65.15805771 52.73695739 -69.39724826 45.68015576 -72.93725586 38.56469727 C-75.12893829 33.5710943 -75.00226292 28.6860366 -75.03515625 23.3203125 C-75.05578125 22.49080078 -75.07640625 21.66128906 -75.09765625 20.80664062 C-75.14812535 12.81359612 -72.94490908 7.13891169 -67.4921875 1.1953125 C-64.54115918 -1.50585759 -61.51250069 -2.96868306 -57.78515625 -4.3671875 C-56.80933594 -4.73972656 -55.83351562 -5.11226563 -54.828125 -5.49609375 C-36.98715611 -11.45692969 -16.25083197 -9.72606184 0 0 Z " fill="#040404" transform="translate(269.78515625,12.3671875)"/>
<path d="M0 0 C0.8144458 0.41975098 1.6288916 0.83950195 2.46801758 1.27197266 C6.48108834 3.40514121 9.81389726 5.36720057 12.8125 8.875 C8.42881358 7.46595794 4.08979164 5.99525131 -0.20703125 4.33984375 C-0.9134375 4.06865723 -1.61984375 3.7974707 -2.34765625 3.51806641 C-3.7678303 2.97003645 -5.18586866 2.41643527 -6.6015625 1.85693359 C-10.05815981 0.52547245 -12.42917997 -0.125 -16.1875 -0.125 C-13.40553634 1.41406761 -10.61182785 2.93025269 -7.8125 4.4375 C-6.96357178 4.89568115 -6.11464355 5.3538623 -5.23999023 5.82592773 C-0.13047278 8.51924725 4.92848427 10.74416738 10.38769531 12.62329102 C21.6043883 16.48931738 21.6043883 16.48931738 23.9375 21 C26.21901284 29.62559047 26.05683027 39.89988832 21.8125 47.875 C16.83773299 55.42478191 10.50340715 58.9290511 1.8125 60.875 C-22.74482259 63.43243128 -45.68023184 53.14708873 -64.67578125 38.01953125 C-73.43180452 30.54354871 -82.17268706 21.51572289 -83.4375 9.5 C-83.71255772 3.72378789 -83.15215642 0.3479457 -79.1875 -4.125 C-57.87368264 -26.62605917 -22.69807088 -11.76233587 0 0 Z " fill="#070707" transform="translate(258.1875,135.125)"/>
<path d="M0 0 C0.87633276 1.02732253 1.70137211 2.09867302 2.5 3.1875 C6.83634869 8.45306627 13.285361 11.78728003 20 13 C21.91561254 13.06688591 23.83335592 13.08531719 25.75 13.0625 C26.73484375 13.05347656 27.7196875 13.04445312 28.734375 13.03515625 C29.48203125 13.02355469 30.2296875 13.01195312 31 13 C27.19461702 18.47676688 22.9697167 23.15246636 18.19921875 27.8046875 C16.31663794 29.68392448 14.58647593 31.59234736 12.875 33.625 C3.88318721 44.05968507 -6.14604863 53.54008662 -17 62 C-18.24511024 62.99798138 -19.48848674 63.99812824 -20.73046875 65 C-31.58608929 73.74824227 -31.58608929 73.74824227 -36.5 77.25 C-42.07923942 81.36742997 -48.20168488 87.18233286 -49.37890625 94.28662109 C-49.46978516 95.51759521 -49.46978516 95.51759521 -49.5625 96.7734375 C-49.63726562 97.6809375 -49.71203125 98.5884375 -49.7890625 99.5234375 C-49.85867187 100.46445312 -49.92828125 101.40546875 -50 102.375 C-50.83823904 113.61361227 -50.83823904 113.61361227 -53 119 C-53.33 119 -53.66 119 -54 119 C-54.33 115.37 -54.66 111.74 -55 108 C-56.54605089 109.54605089 -56.34247155 111.18565678 -56.578125 113.33203125 C-56.74248047 114.65364258 -56.74248047 114.65364258 -56.91015625 116.00195312 C-57.13510338 117.86229176 -57.34625493 119.72435508 -57.54296875 121.58789062 C-58.4244974 128.38754699 -58.4244974 128.38754699 -61.43359375 131.58984375 C-64.01832522 133.01006911 -66.08025418 133.66631476 -69 134 C-68.50679154 128.45140484 -66.9182282 123.81111489 -64.83984375 118.6484375 C-63.74810415 115.6687176 -63.74810415 115.6687176 -64 111 C-66.64 116.28 -69.28 121.56 -72 127 C-72.33 127 -72.66 127 -73 127 C-73 122.71 -73 118.42 -73 114 C-77.16499251 120.94165419 -76.8506253 126.97471096 -75 134.75 C-74.72542969 135.82314453 -74.72542969 135.82314453 -74.4453125 136.91796875 C-73.78631839 139.99905527 -73.8664033 142.86047761 -74 146 C-76.91024202 143.49941082 -78.16791164 140.80344623 -79.6875 137.3125 C-80.12449219 136.31863281 -80.56148437 135.32476562 -81.01171875 134.30078125 C-81.33785156 133.54152344 -81.66398437 132.78226563 -82 132 C-81.47462276 137.0302076 -80.89405214 142.01885239 -80 147 C-80.66 147 -81.32 147 -82 147 C-86.67418488 138.89807954 -86.38384205 126.01856456 -84 117.125 C-76.37515368 95.73307005 -63.82580994 75.78978638 -48.5625 59.0625 C-40.36680485 50.07460233 -33.33352876 40.93767336 -27.375 30.3125 C-10.34328745 0 -10.34328745 0 0 0 Z " fill="#040404" transform="translate(142,210)"/>
<path d="M0 0 C2.6875 1 2.6875 1 4.6875 3 C2.3775 6.3 0.0675 9.6 -2.3125 13 C1.7384583 10.93480557 4.53117934 9.49780374 7.0625 5.6875 C9.6875 3 9.6875 3 11.99609375 2.83984375 C14.27545898 3.09942825 16.45761884 3.46560582 18.6875 4 C16.49624209 8.59278805 13.7821547 12.8743354 11.1484375 17.22265625 C9.4547294 19.91948833 9.4547294 19.91948833 9.6875 23 C11.27146089 21.10468802 12.8546836 19.2087674 14.4375 17.3125 C14.8809375 16.78205078 15.324375 16.25160156 15.78125 15.70507812 C16.21953125 15.17978516 16.6578125 14.65449219 17.109375 14.11328125 C17.55087891 13.59330566 17.99238281 13.07333008 18.44726562 12.53759766 C19.86921429 10.82715182 19.86921429 10.82715182 21.578125 8.10546875 C23.6875 6 23.6875 6 26.9140625 5.55078125 C31.13963171 6.0538252 35.00120003 6.94676303 39.0625 8.1875 C39.8062085 8.40946045 40.54991699 8.6314209 41.31616211 8.86010742 C46.85025524 10.58025327 51.85260406 12.76296141 56.6875 16 C56.64109375 17.00417969 56.5946875 18.00835937 56.546875 19.04296875 C56.24842675 28.53735373 57.25117161 36.04100098 60.6875 45 C61.0175 45 61.3475 45 61.6875 45 C61.5225 43.865625 61.3575 42.73125 61.1875 41.5625 C60.33322992 34.07861282 60.60979776 26.51984993 60.6875 19 C64.59585971 20.70094873 67.79517134 23.26441433 71.125 25.875 C71.68509766 26.30941406 72.24519531 26.74382812 72.82226562 27.19140625 C76.13414371 29.76516448 79.41817818 32.37232078 82.6875 35 C81.69073794 38.2203082 80.62105019 41.12778809 79.0625 44.125 C77.399863 47.07027495 77.399863 47.07027495 77.6875 51 C80.6575 47.04 83.6275 43.08 86.6875 39 C88.3375 39.99 89.9875 40.98 91.6875 42 C90.22158661 45.8382853 88.49126131 49.46584392 86.625 53.125 C85.11466917 56.08657781 83.73901186 58.84546442 82.6875 62 C75.24202884 61.43086974 68.50952971 59.72433653 61.375 57.5625 C60.21307129 57.21485596 59.05114258 56.86721191 57.85400391 56.5090332 C46.67971696 53.10617932 35.71019917 49.2097833 24.7421875 45.19921875 C14.42680406 41.30541551 14.42680406 41.30541551 3.6875 39 C3.6875 38.34 3.6875 37.68 3.6875 37 C4.46351563 36.75507813 5.23953125 36.51015625 6.0390625 36.2578125 C17.61708976 32.25109662 27.204751 25.86257358 35.6875 17 C30.09485434 18.51634731 25.70625456 21.29208357 20.875 24.375 C5.78125 34 5.78125 34 -1.3125 34 C-1.374375 32.7625 -1.43625 31.525 -1.5 30.25 C-2.28077526 23.09855126 -5.25707327 16.37746176 -8.9765625 10.265625 C-10.3125 8 -10.3125 8 -10.3125 6 C-7.28538821 2.46239894 -4.75616336 0 0 0 Z " fill="#060606" transform="translate(293.3125,135)"/>
<path d="M0 0 C13.77582602 1.49288687 26.92649882 3.30066652 40 8 C40.99894287 8.35505615 40.99894287 8.35505615 42.01806641 8.71728516 C63.33354856 16.47442075 98.95583983 31.43375974 112 51 C107.71 54.96 103.42 58.92 99 63 C94 61 94 61 92 58 C94.31 55.69 96.62 53.38 99 51 C94.59885603 51.50298788 92.28804981 53.08772731 89 56 C85.16754879 54.32968228 82.06422998 51.82569365 78.8125 49.25 C73.6941167 45.24770962 68.48729066 41.48804523 63 38 C63.50712033 34.28111761 64.11608215 31.26545761 66 28 C65.2575 28.804375 64.515 29.60875 63.75 30.4375 C60.1225968 33.81758026 60.1225968 33.81758026 57 34 C54.52377319 32.9832904 52.23956546 31.91740637 49.875 30.6875 C44.0042555 27.77181382 38.57137421 25.75764079 32 25 C34.47585238 22.34730103 36.59026101 20.31989897 40 19 C40.99 19 41.98 19 43 19 C43 18.34 43 17.68 43 17 C38.4202209 17.78925898 34.36961596 18.55820208 30.4375 21.125 C24.66000088 24.27636315 19.35829777 23.27165955 13 22 C13 19.69 13 17.38 13 15 C12.34 15 11.68 15 11 15 C10.01 17.475 10.01 17.475 9 20 C6.03 19.67 3.06 19.34 0 19 C0 12.73 0 6.46 0 0 Z " fill="#060606" transform="translate(294,108)"/>
<path d="M0 0 C3.54682133 1.0610575 6.70606474 2.67921949 9.96875 4.39453125 C15.17831584 7.09179887 20.40974634 9.551693 25.8293457 11.79760742 C34.58046836 15.45286073 42.81892541 19.4371403 48.015625 27.82421875 C50.20618467 33.56884973 48.71738756 39.25139946 46.78125 44.83203125 C46.32494197 48.15656119 46.03251216 51.48627722 45.78125 54.83203125 C44.13125 54.83203125 42.48125 54.83203125 40.78125 54.83203125 C40.78125 47.90203125 40.78125 40.97203125 40.78125 33.83203125 C38.26199006 38.87055113 37.16241026 42.32301856 36.59375 47.70703125 C36.4709668 48.73957031 36.4709668 48.73957031 36.34570312 49.79296875 C36.14754262 51.47150482 35.96297213 53.15163606 35.78125 54.83203125 C34.79125 54.50203125 33.80125 54.17203125 32.78125 53.83203125 C32.45125 46.57203125 32.12125 39.31203125 31.78125 31.83203125 C30.45899343 36.45992925 29.39359087 40.58215 28.65625 45.26953125 C28.48867188 46.32011719 28.32109375 47.37070313 28.1484375 48.453125 C28.02726562 49.23816406 27.90609375 50.02320313 27.78125 50.83203125 C25.58145676 50.45275655 23.96631641 49.94933879 22.07421875 48.75 C20.07360869 45.78232767 20.20712919 42.61393445 20.09375 39.14453125 C20.05958984 38.44263672 20.02542969 37.74074219 19.99023438 37.01757812 C19.90795053 35.28961738 19.8429176 33.56085053 19.78125 31.83203125 C19.28625 32.82203125 19.28625 32.82203125 18.78125 33.83203125 C17.688125 33.74953125 16.595 33.66703125 15.46875 33.58203125 C11.83272792 33.46469376 11.83272792 33.46469376 9.84375 35.45703125 C8.40720577 38.66813013 8.25043172 40.31536017 8.78125 43.83203125 C10.25420849 46.9569536 11.95707012 49.90031358 13.78125 52.83203125 C8.70007832 50.5784572 6.71691835 46.98406846 4.53125 41.95703125 C3.20776958 36.44252952 2.86035639 32.54679865 5.59375 27.45703125 C7.78125 24.83203125 7.78125 24.83203125 10.78125 22.83203125 C12.10125 22.83203125 13.42125 22.83203125 14.78125 22.83203125 C14.28625 21.84203125 14.28625 21.84203125 13.78125 20.83203125 C10.04641264 20.56525715 8.07522139 20.67604643 4.71875 22.45703125 C3.2646875 23.13765625 3.2646875 23.13765625 1.78125 23.83203125 C1.07742188 23.54328125 0.37359375 23.25453125 -0.3515625 22.95703125 C-4.23816675 21.43204212 -7.89092868 21.37361585 -12.03125 21.20703125 C-12.81951172 21.16835937 -13.60777344 21.1296875 -14.41992188 21.08984375 C-16.3525038 20.99614281 -18.28559376 20.91302346 -20.21875 20.83203125 C-18.13406028 14.43898279 -7.66009043 -0.57990121 0 0 Z " fill="#070707" transform="translate(422.21875,177.16796875)"/>
<path d="M0 0 C16.88887531 -0.41249132 32.09953881 -0.22419369 48 6 C48.48181362 8.97875968 48.96050857 11.95796749 49.4375 14.9375 C49.57220703 15.76830078 49.70691406 16.59910156 49.84570312 17.45507812 C49.97783203 18.28330078 50.10996094 19.11152344 50.24609375 19.96484375 C50.42676392 21.08814087 50.42676392 21.08814087 50.61108398 22.23413086 C51.16097988 26.14484683 51.56388516 30.0749664 52 34 C37.15 34 22.3 34 7 34 C-1.125 11.94642857 -1.125 11.94642857 0 0 Z " fill="#030303" transform="translate(291,449)"/>
<path d="M0 0 C0.66 0 1.32 0 2 0 C2.36351562 0.78503906 2.72703125 1.57007813 3.1015625 2.37890625 C3.85566406 3.95478516 3.85566406 3.95478516 4.625 5.5625 C5.35589844 7.11130859 5.35589844 7.11130859 6.1015625 8.69140625 C7.6947335 11.46798204 8.95494712 13.03779404 11.13671875 15.25390625 C14.95273382 19.54632992 14.99300793 23.81808374 15.1875 29.375 C15.52725795 36.41356778 16.40802879 42.41270326 19 49 C10.68174597 45.05786628 7.29030972 36.15748486 4 28 C3.29307353 26.01387326 2.60077008 24.02077207 2 22 C1.36254076 31.88061819 4.2688176 38.97634464 10 47 C10.69429379 48.3191582 11.37530495 49.64649406 12 51 C7.01233248 51.53439295 4.063824 51.48774928 -0.0625 48.5 C-4.17648737 45.08247506 -7.66593695 41.16968898 -11 37 C-11.62261719 36.44570312 -12.24523437 35.89140625 -12.88671875 35.3203125 C-14.24949363 32.48000275 -13.90822673 31.82570523 -12.97265625 28.89453125 C-10.99740191 23.73944469 -8.74055597 18.70312759 -6.4375 13.6875 C-6.03853516 12.80771484 -5.63957031 11.92792969 -5.22851562 11.02148438 C-3.54317098 7.31597704 -1.83818161 3.63258472 0 0 Z " fill="#090909" transform="translate(167,154)"/>
<path d="M0 0 C3.74049737 2.61834816 4.74151256 4.14851196 6.0625 8.5 C6 12 6 12 4.625 14.9375 C0.74647801 17.98491013 -2.24915633 17.52691669 -7 17 C-8.41485789 16.68549405 -9.82627108 16.35520118 -11.234375 16.01171875 C-18.77528221 14.46148037 -26.45679087 14.53324335 -34.125 14.375 C-35.66929076 14.33673324 -37.21356216 14.29767677 -38.7578125 14.2578125 C-42.50502913 14.16277533 -46.25239417 14.07840713 -50 14 C-40.2293472 4.09193161 -30.43969126 1.87285394 -17.02368164 0.40722656 C-5.89149477 -1.83290948 -5.89149477 -1.83290948 0 0 Z " fill="#090909" transform="translate(340,337)"/>
<path d="M0 0 C3.35435922 1.38801071 5.11290303 2.88629 7 6 C7 6.99 7 7.98 7 9 C5.34765625 10.5078125 5.34765625 10.5078125 3.0625 12.125 C-7.70163059 20.20232248 -15.37703962 29.76179212 -21 42 C-23.97 41.34 -26.94 40.68 -30 40 C-28.81623963 23.42735488 -15.82055009 13.28097048 -4 3 C-2.68018147 1.98222949 -1.35274005 0.97358725 0 0 Z " fill="#0A0A0A" transform="translate(412,162)"/>
<path d="M0 0 C0.99 0.495 0.99 0.495 2 1 C-11.53779382 30.81797031 -38.34030121 49.79886623 -67.1875 63.625 C-67.84524414 63.94355957 -68.50298828 64.26211914 -69.18066406 64.59033203 C-81.32818775 70.18336995 -94.15248037 70.24813137 -107 67 C-107 66.67 -107 66.34 -107 66 C-105.70707031 65.97421875 -104.41414062 65.9484375 -103.08203125 65.921875 C-68.19198124 64.92607375 -36.17603899 42.49175529 -12.4453125 17.8828125 C-7.45691571 12.46566094 -3.62815822 6.38123221 0 0 Z " fill="#EFEFEF" transform="translate(321,264)"/>
<path d="M0 0 C3 1 3 1 3.94921875 2.57421875 C6.80374822 10.74512058 7.98204402 20.60256968 4.3125 28.6875 C2.3990198 31.82722455 0.52655586 33.70979664 -3 35 C-7.57257755 34.60965801 -10.9237383 32.43813329 -14.6875 30 C-18.76113132 27.35684469 -18.76113132 27.35684469 -23 25 C-23 24.34 -23 23.68 -23 23 C-21.989375 22.608125 -20.97875 22.21625 -19.9375 21.8125 C-9.69104901 17.29746425 -4.81483901 9.98198331 0 0 Z " fill="#070707" transform="translate(280,100)"/>
<path d="M0 0 C18.15 0.33 36.3 0.66 55 1 C54.67 3.31 54.34 5.62 54 8 C51.09435245 8.83177731 48.51291273 9.12629762 45.49438477 9.12939453 C44.60989151 9.13254669 43.72539825 9.13569885 42.81410217 9.13894653 C41.86611252 9.1369223 40.91812286 9.13489807 39.94140625 9.1328125 C38.96010239 9.13376923 37.97879852 9.13472595 36.96775818 9.13571167 C34.89411352 9.13639162 32.82046673 9.1345502 30.74682617 9.13037109 C27.57791339 9.125026 24.40914272 9.1303194 21.24023438 9.13671875 C19.22395802 9.13605782 17.20768176 9.13477636 15.19140625 9.1328125 C14.24544083 9.13483673 13.2994754 9.13686096 12.32484436 9.13894653 C8.09272756 9.12391766 4.12336026 9.08825155 0 8 C0 5.36 0 2.72 0 0 Z " fill="#0C0C0C" transform="translate(158,476)"/>
<path d="M0 0 C2.78757502 2.78757502 3.21004561 6.04189862 4.1875 9.75 C7.21498427 20.52724814 10.89156146 32.87367361 21 39 C21.59941406 39.36351562 22.19882813 39.72703125 22.81640625 40.1015625 C28.43566697 42.41360179 35.33982959 42.2324271 41.07080078 40.30273438 C49.19680069 36.87686295 56.89945323 32.20706763 64 27 C64.66 27.33 65.32 27.66 66 28 C57.62721677 37.23645141 46.72812769 45.63056901 34.05859375 47.4140625 C25.66049613 47.82163301 19.5537613 45.67560057 13.03515625 40.4140625 C7.15896469 34.52501275 4.65441028 26.70033397 2 19 C1.73058594 18.22140625 1.46117187 17.4428125 1.18359375 16.640625 C-0.42871272 11.18358772 -0.18617484 5.62661749 0 0 Z " fill="#ECECEC" transform="translate(203,230)"/>
<path d="M0 0 C-9.54304772 5.23186996 -19.25569998 9.32203191 -29.5 13 C-39.04185681 16.4371591 -48.04360621 20.20967461 -56.99121094 24.95849609 C-60.98710795 27.03026282 -65.05897524 28.94565728 -69.125 30.875 C-69.91970703 31.25664307 -70.71441406 31.63828613 -71.53320312 32.03149414 C-78.58183263 35.37748639 -84.1641084 37.27020316 -92 37 C-89.63208703 34.63208703 -87.98542582 34.23955334 -84.8125 33.1875 C-76.95110886 30.26680518 -69.88259091 26.13532491 -62.66333008 21.8972168 C-50.20727855 14.6375681 -37.66282948 9.63322622 -23.94873047 5.36547852 C-21.34038807 4.55170142 -18.73856831 3.71904112 -16.13671875 2.88476562 C-14.47431195 2.36085579 -12.81156375 1.83802773 -11.1484375 1.31640625 C-10.37349945 1.06758194 -9.5985614 0.81875763 -8.80014038 0.56239319 C-3.34495881 -1.11498627 -3.34495881 -1.11498627 0 0 Z " fill="#F1F1F1" transform="translate(283,378)"/>
<path d="M0 0 C3.32325291 3.32325291 2.94626987 7.33374637 3.3125 11.875 C3.21366595 16.57410999 1.85606921 20.26390947 -1 24 C-9.53033183 31.30906957 -20.03153462 31.74042424 -30.74804688 31.19091797 C-45.09753823 29.97438477 -59.66538341 24.08855429 -70 14 C-69.34 13.67 -68.68 13.34 -68 13 C-65.67273174 13.99654049 -63.44479791 15.05028685 -61.1875 16.1875 C-45.94315458 23.59310753 -28.03700074 28.37042941 -11.1875 23.75 C-7.63744823 22.44811344 -5.15080344 21.22620516 -3 18 C-0.74211884 12.17704333 -0.42561896 6.19387591 0 0 Z " fill="#EBEBEB" transform="translate(276,160)"/>
<path d="M0 0 C0.495 0.99 0.495 0.99 1 2 C-0.33306379 4.53465568 -1.71541494 6.90252357 -3.25 9.3125 C-3.70673096 10.03236084 -4.16346191 10.75222168 -4.6340332 11.49389648 C-18.83177113 33.39185635 -38.60779953 50.87985635 -61 64 C-61 63.01 -61 62.02 -61 61 C-59.15625 59.265625 -59.15625 59.265625 -56.5 57.25 C-50.60982707 52.60347757 -45.1780779 47.57837128 -39.74804688 42.40527344 C-36.63440032 39.44590666 -33.50513587 36.54553025 -30.22265625 33.7734375 C-27.83891391 31.75381265 -25.69335761 29.71844781 -23.6875 27.3125 C-20.88375414 24.01212651 -17.99883267 20.80827197 -15.0625 17.625 C-11.04199837 13.22393181 -7.26169306 8.69376673 -3.59375 3.99609375 C-2 2 -2 2 0 0 Z " fill="#F1F1F1" transform="translate(326,222)"/>
<path d="M0 0 C0.495 0.99 0.495 0.99 1 2 C-2.4099381 9.41911219 -7.79227278 15.78773657 -13 22 C-12.34628418 22.01981934 -11.69256836 22.03963867 -11.01904297 22.06005859 C1.09883766 22.44573406 13.04615743 22.83231376 25 25 C25 25.66 25 26.32 25 27 C23.61832642 27.02187378 23.61832642 27.02187378 22.20874023 27.04418945 C18.71373973 27.10610402 15.21941826 27.18039803 11.72485352 27.26245117 C10.22690363 27.29522732 8.72884419 27.32339757 7.23071289 27.34643555 C-7.11253804 27.57273054 -20.19999644 29.95467671 -34 34 C-30.95306169 30.85731687 -27.8430068 27.97993085 -24.44555664 25.20800781 C-17.6240713 19.6398646 -11.74163238 13.69339847 -6 7 C-5.35675781 6.25878906 -4.71351563 5.51757812 -4.05078125 4.75390625 C-2.69042838 3.17792635 -1.34319652 1.59062746 0 0 Z " fill="#F5F5F5" transform="translate(308,297)"/>
<path d="M0 0 C0.495 0.99 0.495 0.99 1 2 C0.13834229 1.98428955 -0.72331543 1.9685791 -1.61108398 1.95239258 C-4.84836552 1.90086221 -8.08543601 1.86345606 -11.32299805 1.83520508 C-12.71662328 1.82024062 -14.11020244 1.79986149 -15.50366211 1.77368164 C-27.11782378 1.41530425 -27.11782378 1.41530425 -38 5 C-41.15550226 8.3094292 -41.9064406 10.28660958 -42.5 14.8125 C-42.12568135 21.79086918 -38.60506285 27.90153756 -34 33 C-34.33 33.66 -34.66 34.32 -35 35 C-41.76520045 29.89325889 -46.11321113 25.03201178 -47.375 16.44921875 C-47.66616732 10.45299173 -46.63172061 6.77857975 -43 2 C-30.92950932 -7.70887293 -13.598003 -5.16761834 0 0 Z " fill="#F0F0F0" transform="translate(231,130)"/>
<path d="M0 0 C-8.15198324 5.46137624 -16.92969029 9.19914591 -25.94604492 12.95898438 C-28.4060657 13.98686567 -30.8584319 15.03154764 -33.31054688 16.078125 C-41.56935392 19.56810264 -49.86992793 22.76202111 -58.41015625 25.5 C-59.19877548 25.75539551 -59.98739471 26.01079102 -60.7999115 26.27392578 C-64.63661426 27.46227881 -67.93310169 28.32369294 -72 28 C-68.9080565 24.6492329 -65.27754505 23.10746754 -61.16015625 21.3046875 C-60.37363678 20.95539185 -59.58711731 20.60609619 -58.77676392 20.24621582 C-56.20966126 19.11232644 -53.63694079 17.99212081 -51.0625 16.875 C-50.19106354 16.49482727 -49.31962708 16.11465454 -48.42178345 15.72296143 C-5.69828425 -2.84914213 -5.69828425 -2.84914213 0 0 Z " fill="#EFEFEF" transform="translate(311,385)"/>
<path d="M0 0 C3.28099409 1.40103451 5.07414935 2.99346316 7.3125 5.75 C13.82200999 13.34672201 19.33969465 17.03028588 29 20 C28 22 28 22 26 23.125 C19.07168839 25.14575755 13.43023272 24.33646869 7.01171875 21.1328125 C3.14474617 18.95529396 0.63653695 17.2730739 -1.375 13.25 C-2.24913338 8.70450643 -2.11647989 4.23295978 0 0 Z " fill="#0B0B0B" transform="translate(148,193)"/>
<path d="M0 0 C2.40139872 0.96055949 3.73626623 1.56932403 5.10693359 3.80761719 C6.0471809 6.11582407 6.30776222 7.84778517 6.4140625 10.328125 C6.45273438 11.12734375 6.49140625 11.9265625 6.53125 12.75 C6.5621875 13.575 6.593125 14.4 6.625 15.25 C6.66367188 16.09046875 6.70234375 16.9309375 6.7421875 17.796875 C6.83615836 19.86423382 6.91915564 21.93208627 7 24 C10.96 23.67 14.92 23.34 19 23 C18.01 20.9271875 18.01 20.9271875 17 18.8125 C15.4670278 15.3903015 14.50831726 12.81054124 15 9 C15.66 9 16.32 9 17 9 C17.34933594 9.71027344 17.69867188 10.42054687 18.05859375 11.15234375 C18.74115234 12.53099609 18.74115234 12.53099609 19.4375 13.9375 C20.11619141 15.31228516 20.11619141 15.31228516 20.80859375 16.71484375 C21.80525394 18.90528904 21.80525394 18.90528904 23 20 C23.3125 22.375 23.3125 22.375 23 25 C19.69188279 28.43342468 15.97249368 28.66198929 11.4375 28.9375 C10.42913086 29.03901367 10.42913086 29.03901367 9.40039062 29.14257812 C7.43359375 29.27734375 7.43359375 29.27734375 4 29 C1.87519293 26.88037836 1.06952439 25.54970981 0.69116211 22.55810547 C0.71960205 21.67010254 0.74804199 20.78209961 0.77734375 19.8671875 C0.79603516 18.89652344 0.81472656 17.92585938 0.83398438 16.92578125 C0.86814453 15.91902344 0.90230469 14.91226563 0.9375 13.875 C0.99729079 11.87264458 1.04850722 9.87000888 1.08984375 7.8671875 C1.11941162 6.98144043 1.14897949 6.09569336 1.17944336 5.18310547 C1.2195316 2.78832903 1.2195316 2.78832903 -1 1 C-0.67 0.67 -0.34 0.34 0 0 Z " fill="#EAEAEA" transform="translate(231,61)"/>
<path d="M0 0 C0.67546875 0.27690674 1.3509375 0.55381348 2.046875 0.83911133 C5.42059853 2.16533945 8.83055035 3.37288637 12.25 4.57421875 C13.67859534 5.08209218 15.10697364 5.59057645 16.53515625 6.09960938 C18.75321723 6.89010666 20.97203486 7.67772309 23.19482422 8.45483398 C32.98505582 11.88262317 42.0247028 15.76798708 51 21 C46.76217274 22.29161101 43.6293177 21.33792635 39.5 20.0625 C38.76458984 19.83941162 38.02917969 19.61632324 37.27148438 19.38647461 C8.65148808 10.43224774 8.65148808 10.43224774 1 3 C0.67 2.01 0.34 1.02 0 0 Z " fill="#EEEEEE" transform="translate(202,144)"/>
<path d="M0 0 C12.60462304 -0.60990111 22.01224944 4.27290481 32.92773438 9.93164062 C36.26869052 11.65407513 39.63494073 13.32529608 43 15 C45 16 47 17 49 18 C49 18.33 49 18.66 49 19 C40.75380179 18.79931819 34.43076421 16.41478485 27 13 C25.34570188 12.25636527 23.69069916 11.51429685 22.03515625 10.7734375 C18.5652448 9.21912035 15.09946953 7.65613585 11.63671875 6.0859375 C7.77789995 4.34079086 3.89938964 2.65237294 0 1 C0 0.67 0 0.34 0 0 Z " fill="#EEEEEE" transform="translate(220,141)"/>
<path d="M0 0 C0.66 0 1.32 0 2 0 C-1.88234116 12.65423463 -11.19000376 22.36175068 -19.59887695 32.2734375 C-21.17309369 34.15826186 -21.17309369 34.15826186 -23 37 C-23.66 37 -24.32 37 -25 37 C-22.03466385 25.30810319 -14.25181928 16.90591642 -6.55078125 7.98046875 C-4.91356664 6.06745995 -3.32229706 4.11358854 -1.79296875 2.11328125 C-1.20128906 1.41589844 -0.60960937 0.71851563 0 0 Z " fill="#ECECEC" transform="translate(313,210)"/>
<path d="M0 0 C1.485 0.495 1.485 0.495 3 1 C-1.36818383 5.90088918 -6.07114348 9.61829601 -11.5 13.25 C-12.4427478 13.88591064 -12.4427478 13.88591064 -13.40454102 14.53466797 C-18.68529589 17.99838152 -23.52766072 21 -30 21 C-30.33 19.68 -30.66 18.36 -31 17 C-30.01902344 16.52691406 -29.03804688 16.05382812 -28.02734375 15.56640625 C-20.01783451 11.6551109 -12.27615818 7.55487297 -4.78686523 2.70727539 C-3.23550738 1.73071578 -1.62112333 0.85576809 0 0 Z " fill="#EFEFEF" transform="translate(327,151)"/>
<path d="M0 0 C2.64590014 -0.02684679 5.29153096 -0.04676357 7.9375 -0.0625 C8.69224609 -0.07087891 9.44699219 -0.07925781 10.22460938 -0.08789062 C12.14994313 -0.09652441 14.07535581 -0.05224333 16 0 C17 1 17 1 17.09765625 3.28515625 C17.08605469 4.20167969 17.07445312 5.11820313 17.0625 6.0625 C17.05347656 6.98160156 17.04445313 7.90070313 17.03515625 8.84765625 C17.02355469 9.55792969 17.01195312 10.26820313 17 11 C9.33716171 10.75673529 5.03142373 8.66258997 -1 4 C-0.67 2.68 -0.34 1.36 0 0 Z " fill="#0C0C0C" transform="translate(402,205)"/>
<path d="M0 0 C8.75 -0.125 8.75 -0.125 11 1 C11.31563182 6.26053037 10.66590937 9.44573816 8 14 C5.36 14 2.72 14 0 14 C0 9.38 0 4.76 0 0 Z " fill="#070707" transform="translate(475,221)"/>
<path d="M0 0 C10.89843744 -0.5155634 20.68542795 0.0801765 31 4 C31.495 4.99 31.495 4.99 32 6 C21.11 6 10.22 6 -1 6 C-1 2 -1 2 0 0 Z " fill="#DFDFDF" transform="translate(200,126)"/>
<path d="M0 0 C5.35155572 0.33447223 9.2484183 3.39708238 13 7 C14.61362234 10.79675844 13.8325957 14.02204276 13 18 C6.76169153 15.45347667 3.6872749 8.88780664 1.125 2.9375 C0.75375 1.968125 0.3825 0.99875 0 0 Z " fill="#111111" transform="translate(265,30)"/>
<path d="M0 0 C0.33 0.66 0.66 1.32 1 2 C-0.46544395 4.66770612 -1.98140757 7.19533544 -3.625 9.75 C-4.06457031 10.45382813 -4.50414062 11.15765625 -4.95703125 11.8828125 C-7.69766424 16.20674373 -10.63770452 20.14003623 -14 24 C-14.99 23.67 -15.98 23.34 -17 23 C-17.99 23.99 -18.98 24.98 -20 26 C-20.66 25.67 -21.32 25.34 -22 25 C-21.2265625 24.17757812 -20.453125 23.35515625 -19.65625 22.5078125 C-14.03043794 16.49023835 -8.57782175 10.44103184 -3.5234375 3.92578125 C-2 2 -2 2 0 0 Z " fill="#EDEDED" transform="translate(326,222)"/>
<path d="M0 0 C5 1 5 1 6 2 C6.68931568 9.30674622 4.53884753 15.19951555 2 22 C1.34 22 0.68 22 0 22 C0 14.74 0 7.48 0 0 Z " fill="#101010" transform="translate(282,51)"/>
<path d="M0 0 C0.33 0.66 0.66 1.32 1 2 C-2.4099381 9.41911219 -7.79227278 15.78773657 -13 22 C-12.67 22.66 -12.34 23.32 -12 24 C-13.65 23.67 -15.3 23.34 -17 23 C-17 18.02772631 -15.14890127 16.52832312 -11.875 13.1875 C-10.86506394 12.12447777 -9.85594452 11.06067906 -8.84765625 9.99609375 C-8.35797363 9.4841748 -7.86829102 8.97225586 -7.36376953 8.44482422 C-4.79642201 5.72488819 -2.40643247 2.86170348 0 0 Z " fill="#EAEAEA" transform="translate(308,297)"/>
<path d="M0 0 C-2.52232216 2.52232216 -4.50973428 2.85468199 -7.9375 3.8125 C-14.25446076 5.67663653 -20.09036143 8.11031701 -26 11 C-26.33 10.01 -26.66 9.02 -27 8 C-24.33693421 4.63664654 -20.81516173 3.5948356 -16.875 2.3125 C-16.20718506 2.09118408 -15.53937012 1.86986816 -14.85131836 1.6418457 C-9.66436331 0.01320077 -5.38122899 -0.47203763 0 0 Z " fill="#E4E4E4" transform="translate(317,394)"/>
<path d="M0 0 C0.66 0.33 1.32 0.66 2 1 C0.23253336 3.91871933 -1.53956208 6.83460145 -3.3125 9.75 C-3.81201172 10.575 -4.31152344 11.4 -4.82617188 12.25 C-5.31279297 13.04921875 -5.79941406 13.8484375 -6.30078125 14.671875 C-6.74591064 15.4050293 -7.19104004 16.13818359 -7.6496582 16.89355469 C-9.00697487 19.01088035 -10.46637408 21.0076644 -12 23 C-12.99 22.67 -13.98 22.34 -15 22 C-12.0534941 13.64401147 -5.74162459 6.63875343 0 0 Z " fill="#EFEFEF" transform="translate(328,282)"/>
<path d="M0 0 C1.921875 1.41015625 1.921875 1.41015625 3.75 3.0625 C4.67039063 3.88427734 4.67039063 3.88427734 5.609375 4.72265625 C6.06828125 5.14417969 6.5271875 5.56570312 7 6 C3.27842266 7.29246898 0.22231757 6.79108594 -3.625 6.1875 C-4.77226562 6.01605469 -5.91953125 5.84460938 -7.1015625 5.66796875 C-10 5 -10 5 -12 3 C-10.75823305 2.29773859 -9.50614401 1.61370891 -8.25 0.9375 C-7.20585937 0.36322266 -7.20585937 0.36322266 -6.140625 -0.22265625 C-3.54328272 -1.16585171 -2.53617881 -1.04667697 0 0 Z " fill="#131313" transform="translate(225,109)"/>
<path d="M0 0 C0.66 0.33 1.32 0.66 2 1 C1.9375 2.7421875 1.9375 2.7421875 1 5 C-1.33232893 6.57670196 -3.50641627 7.86278977 -6 9.125 C-6.67683838 9.47755859 -7.35367676 9.83011719 -8.05102539 10.19335938 C-12.96622558 12.67470582 -17.51961238 14.23082279 -23 15 C-18.78152611 11.64243915 -14.12388998 9.04376439 -9.48828125 6.31640625 C-6.18712474 4.35943323 -3.0099222 2.39565236 0 0 Z " fill="#EEEEEE" transform="translate(221,437)"/>
<path d="M0 0 C-0.99 1.485 -0.99 1.485 -2 3 C-8.99858833 4.12998041 -16.1967207 2.65285744 -23 1 C-23 0.67 -23 0.34 -23 0 C-19.72966072 -0.19689005 -16.45872059 -0.38089008 -13.1875 -0.5625 C-12.25873047 -0.61857422 -11.32996094 -0.67464844 -10.37304688 -0.73242188 C-9.48037109 -0.78076172 -8.58769531 -0.82910156 -7.66796875 -0.87890625 C-6.84578857 -0.9260376 -6.0236084 -0.97316895 -5.17651367 -1.02172852 C-3 -1 -3 -1 0 0 Z " fill="#F5F5F5" transform="translate(237,330)"/>
<path d="M0 0 C3.78471745 1.36087336 6.8006692 3.09321666 10.0625 5.4375 C10.89910156 6.03433594 11.73570312 6.63117188 12.59765625 7.24609375 C14.74503234 8.81385288 16.87830872 10.39770659 19 12 C18.01 12.66 17.02 13.32 16 14 C14.0770488 12.61220975 12.16193615 11.21532757 10.25 9.8125 C9.71117187 9.42513672 9.17234375 9.03777344 8.6171875 8.63867188 C5.1674831 6.09346314 2.52921558 3.45618536 0 0 Z " fill="#EBEBEB" transform="translate(194,330)"/>
<path d="M0 0 C0.99 0.33 1.98 0.66 3 1 C1.59422879 4.01527738 -0.06126148 6.5947941 -2.0625 9.25 C-2.58972656 9.95640625 -3.11695313 10.6628125 -3.66015625 11.390625 C-4.10230469 11.92171875 -4.54445313 12.4528125 -5 13 C-5.33 13 -5.66 13 -6 13 C-5.09302326 5.13953488 -5.09302326 5.13953488 -3 2 C-2.01 1.34 -1.02 0.68 0 0 Z " fill="#ECECEC" transform="translate(376,174)"/>
<path d="M0 0 C0.33 0 0.66 0 1 0 C1.33764617 5.40233869 0.93631927 10.29730117 -2 15 C-4.6875 16 -4.6875 16 -7 16 C-5.35433477 10.31497465 -2.70967216 5.23318364 0 0 Z " fill="#E7E7E7" transform="translate(78,319)"/>
<path d="M0 0 C5.3063461 1.48084077 9.4543455 3.35030658 12.3125 8.25 C12.539375 8.8275 12.76625 9.405 13 10 C11.68 10.33 10.36 10.66 9 11 C5 6.25 5 6.25 5 4 C4.360625 3.71125 3.72125 3.4225 3.0625 3.125 C1 2 1 2 0 0 Z " fill="#EEEEEE" transform="translate(327,403)"/>
<path d="M0 0 C-2.40672398 2.40672398 -4.11378549 2.79132175 -7.375 3.6875 C-8.80972656 4.09548828 -8.80972656 4.09548828 -10.2734375 4.51171875 C-12.97064661 4.9947433 -14.44972144 4.9004538 -17 4 C-16 2 -16 2 -13 0.875 C-8.67770912 -0.27521462 -4.44043127 -0.18124209 0 0 Z " fill="#D5D5D5" transform="translate(317,394)"/>
<path d="M0 0 C0.66 0.33 1.32 0.66 2 1 C1.10082582 2.98717494 0.1800538 4.96458885 -0.75 6.9375 C-1.51570313 8.59072266 -1.51570313 8.59072266 -2.296875 10.27734375 C-4 13 -4 13 -6.203125 13.87890625 C-6.79609375 13.91886719 -7.3890625 13.95882813 -8 14 C-6.46162154 10.80375738 -4.71133468 7.78394426 -2.875 4.75 C-2.33617187 3.85796875 -1.79734375 2.9659375 -1.2421875 2.046875 C-0.62730469 1.03367187 -0.62730469 1.03367187 0 0 Z " fill="#D2D2D2" transform="translate(321,264)"/>
<path d="M0 0 C0.33 0 0.66 0 1 0 C1.50404808 2.10320063 2.00310508 4.20759791 2.5 6.3125 C2.7784375 7.48425781 3.056875 8.65601563 3.34375 9.86328125 C4 13 4 13 4 16 C3.34 16 2.68 16 2 16 C0.11517599 12.76117996 -0.38465931 10.03098646 -0.6875 6.3125 C-0.81705078 4.85263672 -0.81705078 4.85263672 -0.94921875 3.36328125 C-0.96597656 2.58339844 -0.98273437 1.80351562 -1 1 C-0.67 0.67 -0.34 0.34 0 0 Z " fill="#313131" transform="translate(58,341)"/>
<path d="M0 0 C1.95901454 0.11382653 3.9172338 0.24141125 5.875 0.375 C6.96554687 0.44460938 8.05609375 0.51421875 9.1796875 0.5859375 C12 1 12 1 14 3 C13.67 3.66 13.34 4.32 13 5 C11.39402675 4.54803755 9.79027492 4.08817673 8.1875 3.625 C6.84751953 3.24214844 6.84751953 3.24214844 5.48046875 2.8515625 C3 2 3 2 0 0 Z " fill="#D7D7D7" transform="translate(320,331)"/>
<path d="M0 0 C0.33 0.66 0.66 1.32 1 2 C-0.79370744 6.09990271 -2.83766205 9.38008643 -6.8125 11.5 C-7.534375 11.665 -8.25625 11.83 -9 12 C-7.55575365 8.76138697 -5.74227753 6.38030837 -3.375 3.75 C-2.74335938 3.04359375 -2.11171875 2.3371875 -1.4609375 1.609375 C-0.97882813 1.07828125 -0.49671875 0.5471875 0 0 Z " fill="#D6D6D6" transform="translate(326,222)"/>
<path d="M0 0 C-2 3 -2 3 -5 4 C-6.39439664 4.06665376 -7.79169875 4.08538199 -9.1875 4.0625 C-11.0746875 4.0315625 -11.0746875 4.0315625 -13 4 C-10.96180154 1.96180154 -9.70582202 1.32158941 -7.0625 0.3125 C-6.37285156 0.04050781 -5.68320313 -0.23148437 -4.97265625 -0.51171875 C-3 -1 -3 -1 0 0 Z " fill="#DCDCDC" transform="translate(204,411)"/>
<path d="M0 0 C0.66 0.33 1.32 0.66 2 1 C1.50628906 1.39832031 1.01257813 1.79664063 0.50390625 2.20703125 C-0.13675781 2.73683594 -0.77742188 3.26664062 -1.4375 3.8125 C-2.07558594 4.33457031 -2.71367187 4.85664063 -3.37109375 5.39453125 C-5.2548275 7.00834411 -5.2548275 7.00834411 -6 10 C-9.0625 11.1875 -9.0625 11.1875 -12 12 C-8.32167983 7.47384007 -4.58913637 3.60575001 0 0 Z " fill="#E1E1E1" transform="translate(275,365)"/>
<path d="M0 0 C0.99 1.32 1.98 2.64 3 4 C-0.63 5.98 -4.26 7.96 -8 10 C-5.97441262 5.94882524 -4.47973456 4.67671889 -1 2 C-0.67 1.34 -0.34 0.68 0 0 Z " fill="#F0F0F0" transform="translate(277,364)"/>
<path d="M0 0 C3.63 0.33 7.26 0.66 11 1 C11 1.66 11 2.32 11 3 C7.04 3 3.08 3 -1 3 C-0.67 2.01 -0.34 1.02 0 0 Z " fill="#EBEBEB" transform="translate(322,321)"/>
<path d="M0 0 C0.66 0.33 1.32 0.66 2 1 C-0.35876434 6.30721977 -3.91130316 7.83639731 -9 10 C-7.84906278 6.54718834 -6.6794007 5.61917837 -3.9375 3.3125 C-2.83728516 2.37857422 -2.83728516 2.37857422 -1.71484375 1.42578125 C-1.14894531 0.95527344 -0.58304687 0.48476563 0 0 Z " fill="#D9D9D9" transform="translate(273,276)"/>
<path d="M0 0 C0.99 0 1.98 0 3 0 C2.67 3.63 2.34 7.26 2 11 C-1.14388614 6.80815181 -1.43831791 5.93107644 -1 1 C-0.67 0.67 -0.34 0.34 0 0 Z " fill="#090909" transform="translate(436,213)"/>
<path d="M0 0 C0.66 0.33 1.32 0.66 2 1 C-0.97 5.95 -0.97 5.95 -4 11 C-4.99 10.01 -5.98 9.02 -7 8 C-4.69 5.36 -2.38 2.72 0 0 Z " fill="#CCCCCC" transform="translate(328,282)"/>
<path d="M0 0 C-0.57323431 3.86933162 -2.38953552 6.15222057 -5 9 C-5.66 9 -6.32 9 -7 9 C-4.83333333 0 -4.83333333 0 0 0 Z " fill="#E0E0E0" transform="translate(295,238)"/>
<path d="M0 0 C0.66 0.33 1.32 0.66 2 1 C-0.64 3.64 -3.28 6.28 -6 9 C-6.66 7.68 -7.32 6.36 -8 5 C-6.71475739 4.13619741 -5.42157581 3.28419631 -4.125 2.4375 C-3.04605469 1.72400391 -3.04605469 1.72400391 -1.9453125 0.99609375 C-1.30335938 0.66738281 -0.66140625 0.33867187 0 0 Z " fill="#D7D7D7" transform="translate(267,257)"/>
<path d="M0 0 C2.64 1.65 5.28 3.3 8 5 C3.23374833 6.19156292 2.12120649 5.3415946 -2 3 C-1.34 2.01 -0.68 1.02 0 0 Z " fill="#E3E3E3" transform="translate(321,364)"/>
<path d="M0 0 C-4.95 2.475 -4.95 2.475 -10 5 C-10 4.34 -10 3.68 -10 3 C-10.66 2.67 -11.32 2.34 -12 2 C-10.56656 1.46809459 -9.12804633 0.94984742 -7.6875 0.4375 C-6.48673828 0.00244141 -6.48673828 0.00244141 -5.26171875 -0.44140625 C-3 -1 -3 -1 0 0 Z " fill="#DCDCDC" transform="translate(283,378)"/>
<path d="M0 0 C3.3 0.99 6.6 1.98 10 3 C10 3.33 10 3.66 10 4 C1.42857143 4.28571429 1.42857143 4.28571429 -2 2 C-1.34 1.34 -0.68 0.68 0 0 Z " fill="#E5E5E5" transform="translate(211,284)"/>
<path d="M0 0 C0 0.99 0 1.98 0 3 C-2.3129482 5.3129482 -3.47904875 5.49580975 -6.625 6.125 C-7.44226563 6.29257812 -8.25953125 6.46015625 -9.1015625 6.6328125 C-10.04128906 6.81457031 -10.04128906 6.81457031 -11 7 C-7.54319097 4.23455278 -3.85658398 2.15078722 0 0 Z " fill="#D3D3D3" transform="translate(209,445)"/>
<path d="M0 0 C-4.95 2.475 -4.95 2.475 -10 5 C-10.33 4.01 -10.66 3.02 -11 2 C-9.73392393 1.46770674 -8.46189588 0.94955456 -7.1875 0.4375 C-6.47980469 0.14746094 -5.77210938 -0.14257812 -5.04296875 -0.44140625 C-3 -1 -3 -1 0 0 Z " fill="#D8D8D8" transform="translate(199,433)"/>
<path d="M0 0 C-4.455 2.97 -4.455 2.97 -9 6 C-9.33 5.34 -9.66 4.68 -10 4 C-7.39928297 0.98864344 -3.94054294 -1.97027147 0 0 Z " fill="#D0D0D0" transform="translate(181,418)"/>
<path d="M0 0 C-2.64 1.65 -5.28 3.3 -8 5 C-8.33 3.68 -8.66 2.36 -9 1 C-2.25 -1.125 -2.25 -1.125 0 0 Z " fill="#D7D7D7" transform="translate(311,385)"/>
<path d="M0 0 C0.33 0.99 0.66 1.98 1 3 C-2.25978366 5.22257977 -5.44774296 7.28564986 -9 9 C-8.06725891 7.87105124 -7.12859878 6.74699124 -6.1875 5.625 C-5.66542969 4.99851562 -5.14335937 4.37203125 -4.60546875 3.7265625 C-3 2 -3 2 0 0 Z " fill="#E7E7E7" transform="translate(315,276)"/>
<path d="M0 0 C0.33 0 0.66 0 1 0 C1 2.97 1 5.94 1 9 C0.67 7.68 0.34 6.36 0 5 C-0.99 5.33 -1.98 5.66 -3 6 C-3.99 5.34 -4.98 4.68 -6 4 C-5.38125 3.896875 -4.7625 3.79375 -4.125 3.6875 C-1.63473516 3.12474627 -1.63473516 3.12474627 0 0 Z " fill="#B8B8B8" transform="translate(442,208)"/>
<path d="M0 0 C2.125 0.9375 2.125 0.9375 4 2 C0.86501708 3.85776765 -1.37471432 4.20140476 -5 4 C-3.36587557 2.29159719 -2.13093906 1.06546953 0 0 Z " fill="#BCBCBC" transform="translate(244,409)"/>
<path d="M0 0 C1.98 0.66 3.96 1.32 6 2 C6.33 3.65 6.66 5.3 7 7 C6.34 6.67 5.68 6.34 5 6 C5 5.34 5 4.68 5 4 C4.360625 3.71125 3.72125 3.4225 3.0625 3.125 C1 2 1 2 0 0 Z " fill="#C8C8C8" transform="translate(327,403)"/>
<path d="M0 0 C3.93673644 1.31224548 6.22719294 2.91910327 9 6 C8.01 6.33 7.02 6.66 6 7 C4.02 4.69 2.04 2.38 0 0 Z " fill="#C8C8C8" transform="translate(194,330)"/>
<path d="M0 0 C0.33 0.99 0.66 1.98 1 3 C-0.32 4.32 -1.64 5.64 -3 7 C-3.66 6.01 -4.32 5.02 -5 4 C-3.35 2.68 -1.7 1.36 0 0 Z " fill="#F3F3F3" transform="translate(320,231)"/>
</svg>
